<svg width="22" height="22" viewBox="0 0 22 22" fill="none" xmlns="http://www.w3.org/2000/svg">
<path d="M22 8.25C22 7.52065 21.7103 6.82118 21.1945 6.30546C20.6788 5.78973 19.9793 5.5 19.25 5.5H17.4167V0H4.58333V5.5H2.75C2.02065 5.5 1.32118 5.78973 0.805456 6.30546C0.289731 6.82118 0 7.52065 0 8.25V19.25H4.58333V22H17.4167V19.25H22V8.25ZM6.41667 1.83333H15.5833V5.5H6.41667V1.83333ZM15.5833 20.1667H6.41667V14.6667H15.5833V20.1667ZM20.1667 17.4167H17.4167V12.8333H4.58333V17.4167H1.83333V8.25C1.83333 8.00688 1.92991 7.77373 2.10182 7.60182C2.27373 7.42991 2.50688 7.33333 2.75 7.33333H19.25C19.4931 7.33333 19.7263 7.42991 19.8982 7.60182C20.0701 7.77373 20.1667 8.00688 20.1667 8.25V17.4167Z" fill="#032A7C"/>
<path d="M17.4167 9.16667H13.75V11H17.4167V9.16667Z" fill="#032A7C"/>
</svg>
