<svg width="18" height="18" viewBox="0 0 18 18" fill="none" xmlns="http://www.w3.org/2000/svg">
<path d="M9.73668 0.752434C9.73668 0.553194 9.81583 0.362115 9.95672 0.221231C10.0976 0.0803473 10.2887 0.0011997 10.4879 0.0011997C12.4796 0.00338699 14.3892 0.795566 15.7975 2.20393C17.2059 3.61229 17.9981 5.52181 18.0003 7.51354C18.0003 7.71278 17.9211 7.90386 17.7802 8.04474C17.6393 8.18563 17.4483 8.26477 17.249 8.26477C17.0498 8.26477 16.8587 8.18563 16.7178 8.04474C16.5769 7.90386 16.4978 7.71278 16.4978 7.51354C16.496 5.92017 15.8622 4.39258 14.7356 3.26589C13.6089 2.13921 12.0813 1.50546 10.4879 1.50367C10.2887 1.50367 10.0976 1.42452 9.95672 1.28364C9.81583 1.14275 9.73668 0.951673 9.73668 0.752434ZM10.4879 4.5086C11.2849 4.5086 12.0492 4.82519 12.6127 5.38873C13.1763 5.95226 13.4929 6.71658 13.4929 7.51354C13.4929 7.71278 13.572 7.90386 13.7129 8.04474C13.8538 8.18563 14.0448 8.26477 14.2441 8.26477C14.4433 8.26477 14.6344 8.18563 14.7753 8.04474C14.9162 7.90386 14.9953 7.71278 14.9953 7.51354C14.9941 6.31847 14.5189 5.17269 13.6738 4.32764C12.8288 3.4826 11.683 3.00733 10.4879 3.00614C10.2887 3.00614 10.0976 3.08528 9.95672 3.22617C9.81583 3.36705 9.73668 3.55813 9.73668 3.75737C9.73668 3.95661 9.81583 4.14769 9.95672 4.28857C10.0976 4.42946 10.2887 4.5086 10.4879 4.5086ZM17.3189 12.5761C17.7542 13.0127 17.9987 13.604 17.9987 14.2206C17.9987 14.8371 17.7542 15.4285 17.3189 15.865L16.6353 16.6531C10.4827 22.5435 -4.48943 7.57514 1.31009 1.403L2.17401 0.651768C2.61106 0.228581 3.19714 -0.00552454 3.80547 9.90198e-05C4.4138 0.00572258 4.99546 0.250623 5.4246 0.681818C5.44789 0.705106 6.83993 2.51333 6.83993 2.51333C7.25298 2.94726 7.48291 3.52368 7.48193 4.12277C7.48095 4.72186 7.24914 5.29753 6.83467 5.73011L5.96474 6.82391C6.44617 7.99366 7.15399 9.05676 8.04754 9.95212C8.94109 10.8475 10.0028 11.5574 11.1715 12.0412L12.2721 11.166C12.7047 10.7519 13.2803 10.5203 13.8792 10.5195C14.4781 10.5187 15.0543 10.7486 15.4881 11.1615C15.4881 11.1615 17.2956 12.5528 17.3189 12.5761ZM16.2852 13.6684C16.2852 13.6684 14.4875 12.2854 14.4642 12.2621C14.3094 12.1086 14.1003 12.0225 13.8824 12.0225C13.6644 12.0225 13.4553 12.1086 13.3005 12.2621C13.2803 12.2831 11.765 13.4904 11.765 13.4904C11.6629 13.5716 11.5414 13.6249 11.4124 13.6449C11.2835 13.665 11.1515 13.651 11.0296 13.6045C9.51542 13.0408 8.14011 12.1582 6.99681 11.0166C5.85351 9.87498 4.9689 8.50099 4.40292 6.98768C4.35274 6.86406 4.33638 6.72932 4.35552 6.59729C4.37467 6.46526 4.42863 6.34071 4.51185 6.23644C4.51185 6.23644 5.71909 4.72045 5.73937 4.70092C5.89282 4.54615 5.97892 4.33703 5.97892 4.11909C5.97892 3.90114 5.89282 3.69202 5.73937 3.53726C5.71608 3.51472 4.33306 1.71552 4.33306 1.71552C4.17598 1.57466 3.97097 1.49923 3.76005 1.50468C3.54914 1.51013 3.3483 1.59604 3.1987 1.74481L2.33478 2.49605C-1.90368 7.59242 11.0709 19.8473 15.537 15.6269L16.2213 14.8381C16.3817 14.6895 16.478 14.4844 16.49 14.2662C16.5019 14.0479 16.4284 13.8335 16.2852 13.6684Z" fill="#032A7C"/>
</svg>
