<svg width="21" height="20" viewBox="0 0 21 20" fill="none" xmlns="http://www.w3.org/2000/svg">
<path d="M16.625 0.333496H4.375C3.2151 0.334885 2.10311 0.796268 1.28294 1.61644C0.462772 2.43661 0.00138938 3.5486 0 4.7085V15.2085C0.00138938 16.3684 0.462772 17.4804 1.28294 18.3006C2.10311 19.1207 3.2151 19.5821 4.375 19.5835H16.625C17.7849 19.5821 18.8969 19.1207 19.7171 18.3006C20.5372 17.4804 20.9986 16.3684 21 15.2085V4.7085C20.9986 3.5486 20.5372 2.43661 19.7171 1.61644C18.8969 0.796268 17.7849 0.334885 16.625 0.333496ZM4.375 2.0835H16.625C17.1489 2.08453 17.6606 2.24232 18.0941 2.53657C18.5276 2.83083 18.8631 3.24807 19.0575 3.73462L12.3568 10.4362C11.8636 10.9274 11.196 11.2032 10.5 11.2032C9.80401 11.2032 9.13638 10.9274 8.64325 10.4362L1.9425 3.73462C2.13688 3.24807 2.47241 2.83083 2.90592 2.53657C3.33942 2.24232 3.85106 2.08453 4.375 2.0835ZM16.625 17.8335H4.375C3.67881 17.8335 3.01113 17.5569 2.51884 17.0647C2.02656 16.5724 1.75 15.9047 1.75 15.2085V6.021L7.406 11.6735C8.2273 12.4927 9.33997 12.9528 10.5 12.9528C11.66 12.9528 12.7727 12.4927 13.594 11.6735L19.25 6.021V15.2085C19.25 15.9047 18.9734 16.5724 18.4812 17.0647C17.9889 17.5569 17.3212 17.8335 16.625 17.8335Z" fill="#032A7C"/>
</svg>
