<svg width="15" height="13" viewBox="0 0 15 13" fill="none" xmlns="http://www.w3.org/2000/svg">
<path d="M14.7428 6.41275C14.7378 5.86956 14.5189 5.35023 14.1337 4.96729L9.70436 0.527653C9.51092 0.335354 9.24923 0.227417 8.97647 0.227417C8.7037 0.227417 8.44202 0.335354 8.24858 0.527653C8.1518 0.623635 8.07499 0.737827 8.02258 0.863644C7.97016 0.98946 7.94317 1.12441 7.94317 1.26071C7.94317 1.39701 7.97016 1.53196 8.02258 1.65777C8.07499 1.78359 8.1518 1.89778 8.24858 1.99376L11.6454 5.38028L1.32068 5.38028C1.04685 5.38028 0.784239 5.48905 0.590613 5.68268C0.396986 5.87631 0.288208 6.13892 0.288208 6.41275C0.288208 6.68658 0.396986 6.94919 0.590613 7.14282C0.784239 7.33644 1.04685 7.44522 1.32068 7.44522L11.6454 7.44522L8.24858 10.8421C8.05416 11.0351 7.94439 11.2975 7.94342 11.5715C7.94245 11.8454 8.05036 12.1086 8.24341 12.303C8.43646 12.4974 8.69884 12.6072 8.97282 12.6082C9.2468 12.6091 9.50994 12.5012 9.70436 12.3082L14.1337 7.86854C14.5215 7.48306 14.7405 6.95952 14.7428 6.41275Z" fill="white"/>
</svg>
