<svg width="16" height="13" viewBox="0 0 16 13" fill="none" xmlns="http://www.w3.org/2000/svg">
<path d="M15.411 6.41275C15.406 5.86956 15.1872 5.35023 14.8019 4.96729L10.3726 0.527653C10.1791 0.335354 9.91745 0.227417 9.64468 0.227417C9.37192 0.227417 9.11024 0.335354 8.91679 0.527653C8.82002 0.623635 8.74321 0.737827 8.69079 0.863644C8.63837 0.98946 8.61139 1.12441 8.61139 1.26071C8.61139 1.39701 8.63837 1.53196 8.69079 1.65777C8.74321 1.78359 8.82002 1.89778 8.91679 1.99376L12.3136 5.38028L1.98889 5.38028C1.71507 5.38028 1.45245 5.48905 1.25883 5.68268C1.0652 5.87631 0.956421 6.13892 0.956421 6.41275C0.956421 6.68658 1.0652 6.94919 1.25883 7.14282C1.45245 7.33644 1.71507 7.44522 1.98889 7.44522L12.3136 7.44522L8.91679 10.8421C8.72237 11.0351 8.6126 11.2975 8.61163 11.5715C8.61067 11.8454 8.71858 12.1086 8.91163 12.303C9.10468 12.4974 9.36705 12.6072 9.64103 12.6082C9.91501 12.6091 10.1782 12.5012 10.3726 12.3082L14.8019 7.86854C15.1897 7.48306 15.4087 6.95952 15.411 6.41275Z" fill="#020615"/>
</svg>
