<svg width="14" height="8" viewBox="0 0 14 8" fill="none" xmlns="http://www.w3.org/2000/svg">
<path d="M13.25 1.82642C13.2504 1.72822 13.2315 1.63089 13.1943 1.53997L12.9629 1.63449L13.1943 1.53996C13.157 1.44859 13.102 1.36549 13.0325 1.29543C12.9628 1.22514 12.8799 1.16935 12.7885 1.13128C12.6971 1.0932 12.5991 1.0736 12.5001 1.0736C12.4011 1.0736 12.3031 1.0932 12.2117 1.13128C12.1205 1.16928 12.0377 1.22494 11.968 1.29504C11.9679 1.29517 11.9678 1.2953 11.9676 1.29543L7.88417 5.37889C7.88414 5.37892 7.88411 5.37895 7.88408 5.37898C7.64976 5.61296 7.33216 5.74438 7.00102 5.74438C6.66989 5.74438 6.35229 5.61297 6.11798 5.379C6.11794 5.37896 6.1179 5.37893 6.11787 5.37889L2.03368 1.2947C1.96385 1.22488 1.88096 1.16949 1.78972 1.13169C1.69849 1.09391 1.60071 1.07446 1.50196 1.07446C1.40321 1.07446 1.30543 1.09391 1.2142 1.13169C1.12296 1.16949 1.04007 1.22488 0.970244 1.2947C0.900418 1.36453 0.845029 1.44742 0.80724 1.53865C0.76945 1.62989 0.75 1.72767 0.75 1.82642C0.75 1.92517 0.76945 2.02295 0.807239 2.11418C0.845029 2.20541 0.900417 2.28831 0.970244 2.35813L5.05432 6.44221C5.05439 6.44228 5.05448 6.44237 5.05454 6.44243C5.30992 6.6984 5.61324 6.90146 5.9472 7.04004C6.28124 7.17865 6.63935 7.25 7.00102 7.25C7.36268 7.25 7.72079 7.17865 8.05484 7.04004C8.38881 6.90145 8.69217 6.69836 8.94755 6.44238C8.9476 6.44232 8.94766 6.44227 8.94772 6.44221L13.0318 2.35813L13.0325 2.35741C13.102 2.28734 13.157 2.20424 13.1943 2.11287L12.9629 2.01834L13.1943 2.11287C13.2315 2.02194 13.2504 1.92462 13.25 1.82642ZM13.25 1.82642C13.25 1.8269 13.25 1.82738 13.25 1.82786L13 1.82642L13.25 1.82497C13.25 1.82545 13.25 1.82594 13.25 1.82642Z" fill="white" stroke="white" stroke-width="0.5"/>
</svg>
