<svg width="142" height="142" viewBox="0 0 142 142" fill="none" xmlns="http://www.w3.org/2000/svg">
<circle cx="71" cy="71" r="69" fill="white" stroke="#A5CBEF" stroke-width="4"/>
<circle cx="71" cy="71" r="62" fill="white" stroke="#FEEA93" stroke-width="4"/>
<path d="M106.4 93.1516C106.4 93.1516 115.35 91.7655 113.334 82.8157C111.317 73.8659 108.417 65.9245 112.956 62.772C117.494 59.6194 122.033 61.3858 122.158 63.0247C122.283 64.6635 121.653 67.3106 118.628 68.4441C115.603 69.5775 115.728 71.2163 116.989 74.2438C118.25 77.2687 122.158 90.7571 116.611 94.4126C111.064 98.0681 107.914 98.1932 107.914 98.1932C107.914 98.1932 106.778 96.9322 106.4 93.1516Z" fill="white"/>
<path d="M112.956 62.772C108.417 65.9245 111.317 73.866 113.334 82.8157C115.35 91.7655 106.4 93.1516 106.4 93.1516C106.778 96.9322 107.914 98.1932 107.914 98.1932C107.914 98.1932 109.106 98.1442 111.31 97.261C110.654 96.2674 110.694 94.7684 113.586 92.7738C119.258 88.8656 114.72 79.6632 113.208 73.6133C111.695 67.5634 114.342 64.1581 117.494 63.2774C120.647 62.3942 119.889 66.6802 119.889 66.6802C119.889 66.6802 120.303 66.7317 121.003 66.7881C121.999 65.5663 122.239 64.0845 122.158 63.0222C122.031 61.3834 117.492 59.6195 112.956 62.772Z" fill="#D4E4F3"/>
<path d="M48.4131 83.824L49.5465 81.8074L66.8155 77.5214L72.3625 70.4632C72.3625 70.4632 86.9844 70.3381 95.1785 76.8934C95.1785 76.8934 103.75 80.674 107.406 97.1898C107.406 97.1898 108.539 103.367 101.987 104.376C95.4312 105.384 83.3289 103.998 83.3289 103.998C83.3289 103.998 81.0596 101.603 82.4457 99.9645L77.5292 99.8394L61.0159 94.6702L48.4131 83.824Z" fill="white"/>
<path d="M103.956 87.0526C100.001 79.018 95.1781 76.8909 95.1781 76.8909C90.1291 72.8503 82.6366 71.3488 77.6318 70.7919C77.7324 76.3536 81.5743 82.2613 87.9113 85.6616C93.3921 88.5982 99.4003 88.9441 103.956 87.0526Z" fill="#FEEA93"/>
<path d="M85.0627 85.5242C85.0627 85.5242 79.6727 91.9544 89.2235 96.7752L84.8738 97.7074C84.8713 97.7074 77.5948 90.6296 85.0627 85.5242Z" fill="#D4E4F3"/>
<path d="M50.6504 83.1616C50.6504 83.1616 55.8441 85.9143 68.3291 80.8923C77.0262 77.3939 73.7191 71.155 73.7191 71.155L72.2054 71.6285L50.6504 83.1616Z" fill="#D4E4F3"/>
<path d="M72.4902 71.5942C72.4902 71.5942 94.6757 72.8552 100.475 87.8549C100.475 87.8549 103.5 93.7797 103.5 98.571C103.5 103.362 84.8428 101.974 84.8428 101.974C84.8428 101.974 82.4483 99.5793 89.0036 97.4351C89.0036 97.4351 83.8344 96.3017 81.8178 100.713C79.8012 105.124 89.6341 103.865 94.2979 103.99C94.2979 103.99 105.392 105.251 106.903 102.226C108.417 99.2015 105.77 89.6213 104.256 87.3519C102.742 85.0826 96.8175 71.0912 72.868 70.208L72.4902 71.5942Z" fill="#D4E4F3"/>
<path d="M100.475 87.8573C100.475 87.8573 100.502 87.9088 100.549 88.007C101.746 87.8131 102.892 87.4967 103.957 87.0526C103.63 86.3902 103.299 85.7695 102.963 85.1856C101.628 83.0341 99.3001 79.8177 95.2252 76.9105C95.1982 76.8983 95.181 76.8885 95.181 76.8885C95.1025 76.8247 95.0191 76.7682 94.9381 76.7069C93.0123 75.3674 90.7086 74.1039 87.951 73.049C84.3176 71.7659 80.5542 71.1133 77.6348 70.787C77.6446 71.2998 77.6863 71.815 77.7574 72.3326C84.693 73.704 96.4764 77.5165 100.475 87.8573Z" fill="#F4C171"/>
<path d="M46.2788 82.7593C43.4134 81.6234 42.6651 79.5577 42.54 78.0244L42.3535 75.7182L44.5223 76.5229C44.6449 76.5671 56.9165 80.8899 70.5276 66.0791L72.3602 64.0845L73.0398 66.7071C73.4888 66.7955 75.3288 73.0539 69.6297 77.9385C66.5458 80.5807 57.9493 83.5493 51.3155 83.5493C49.4068 83.5493 47.6674 83.3088 46.2788 82.7593ZM47.4491 80.0484C52.4809 81.9546 64.4629 78.6353 67.6523 75.7477C69.4751 74.0966 70.1326 72.1143 70.3215 70.4975C60.9081 79.4718 52.2625 80.436 47.4491 80.0484Z" fill="#603833"/>
<path d="M71.6147 67.0751C71.6147 67.0751 73.9159 72.2124 68.6412 76.8419C64.1222 80.8089 44.6476 85.7597 44.0098 77.9041C44.0098 77.9041 57.1743 82.7887 71.6147 67.0751Z" fill="#FFA9A8"/>
<path d="M71.1961 47.7551C70.8428 47.733 70.4993 47.5834 70.2393 47.316C70.1878 47.2644 64.6089 41.7739 53.8927 42.4019C53.4045 42.4314 52.9384 42.2155 52.6415 41.8279C52.3471 41.4402 52.2637 40.9299 52.4207 40.4687C52.59 39.9731 56.6429 28.31 63.7968 27.1839C64.2139 27.1177 64.6408 27.2354 64.9646 27.5078C65.21 27.7138 71.0121 32.7039 72.7392 46.1089C72.8202 46.7321 72.4915 47.3381 71.9247 47.6128C71.6917 47.7232 71.4414 47.7698 71.1961 47.7551ZM57.5384 39.4825C62.8891 39.8161 66.7973 41.4991 69.2481 42.9662C67.6657 35.3094 64.7267 31.4944 63.5687 30.2359C60.188 31.3055 57.4108 36.1509 55.9732 39.426C56.508 39.431 57.0305 39.4506 57.5384 39.4825Z" fill="#603833"/>
<path d="M53.8076 40.9398C53.8076 40.9398 57.6618 29.6299 64.0257 28.629C64.0257 28.629 69.6144 33.3026 71.2876 46.293C71.2876 46.293 65.3972 40.2627 53.8076 40.9398Z" fill="#FEEA93"/>
<path d="M59.7354 38.9379C59.7354 38.9379 64.588 40.5841 66.0208 41.85C66.0208 41.85 66.774 36.5213 64.0483 33.0744C64.0483 33.0744 61.016 34.566 59.7354 38.9379Z" fill="#FFA9A8"/>
<path d="M29.9909 57.7696C29.6744 57.75 29.4021 58.8933 29.1519 58.6749L28.2834 57.2324C28.1117 56.8693 27.7289 56.1112 27.6455 55.883C27.5351 55.5862 24.9469 48.5697 24.5887 42.797C24.5494 42.1493 24.937 41.5531 25.5455 41.3323C25.7687 41.2489 31.1121 39.35 37.7042 41.6512C38.3838 41.8892 38.7886 42.5835 38.661 43.2925L38.4598 44.4063C38.3862 44.821 38.136 45.1816 37.7753 45.3999C31.2127 49.3621 31.539 56.1529 31.5414 56.2191C31.5758 56.8079 31.2544 57.3624 30.7245 57.62C30.4914 57.7377 30.2387 57.7868 29.9909 57.7696ZM27.6136 43.8053C27.9203 46.5211 28.6784 49.4504 29.3236 51.6142C30.0841 49.183 31.642 46.2513 34.8191 43.8715C31.6665 43.165 29.0145 43.506 27.6136 43.8053Z" fill="#603833"/>
<path d="M37.2213 43.0349C31.0487 40.8785 26.0488 42.7086 26.0488 42.7086C26.3972 48.3292 29.0174 55.3752 29.0174 55.3752L30.0821 56.3099C30.0821 56.3099 29.6233 48.6163 37.0201 44.1512L37.2213 43.0349Z" fill="#D4E4F3"/>
<path d="M30.6879 50.8169C30.6879 50.8169 29.606 49.3204 28.6885 45.1497C28.6885 45.1497 29.8661 43.7955 34.5348 45.6821C34.5348 45.6821 32.6163 46.8204 30.6879 50.8169Z" fill="#FFA9A8"/>
<path d="M53.7529 79.0528C66.8222 78.2028 76.8128 68.2234 76.0674 56.763C75.3221 45.3027 64.1231 36.7013 51.0538 37.5513C37.9844 38.4013 27.9939 48.3807 28.7392 59.8411C29.4845 71.3014 40.6836 79.9028 53.7529 79.0528Z" fill="#603833"/>
<path d="M53.6519 77.5105C65.7504 76.7236 74.9989 67.4859 74.309 56.8773C73.619 46.2688 63.2519 38.3068 51.1534 39.0936C39.0549 39.8805 29.8064 49.1182 30.4963 59.7268C31.1863 70.3353 41.5534 78.2973 53.6519 77.5105Z" fill="#D4E4F3"/>
<path d="M72.1273 55.8781C71.8353 50.9666 69.6494 46.6266 66.3006 43.4692C62.3262 40.4025 57.0712 38.7122 51.4113 39.1121C45.6386 39.5193 40.5381 42.0217 36.9514 45.7385C34.1104 49.3081 32.5256 53.8345 32.8126 58.6529C33.4406 69.1777 42.751 77.0897 53.607 76.3218C64.463 75.5539 72.7553 66.4029 72.1273 55.8781Z" fill="white"/>
<path d="M72.5363 50.341C68.9814 43.1993 60.5935 38.484 51.153 39.0973C47.9416 39.3059 44.9338 40.1155 42.2573 41.3838C42.0389 42.4633 41.9555 43.5771 42.0291 44.713C42.5418 52.5833 50.233 58.4934 59.2098 57.9095C65.007 57.5292 69.9186 54.5337 72.5363 50.341Z" fill="#FEEA93"/>
<path d="M56.298 56.4644C58.3643 56.4644 60.0393 54.7894 60.0393 52.7231C60.0393 50.6568 58.3643 48.9818 56.298 48.9818C54.2317 48.9818 52.5566 50.6568 52.5566 52.7231C52.5566 54.7894 54.2317 56.4644 56.298 56.4644Z" fill="#603833"/>
<path d="M55.8236 52.6311C56.4559 52.2908 56.727 51.5661 56.4291 51.0125C56.1312 50.4589 55.377 50.2859 54.7446 50.6263C54.1123 50.9666 53.8411 51.6913 54.1391 52.2449C54.437 52.7985 55.1912 52.9714 55.8236 52.6311Z" fill="#FFF6F7"/>
<path d="M42.6543 60.7578C44.5404 60.7578 46.0693 59.2288 46.0693 57.3428C46.0693 55.4567 44.5404 53.9277 42.6543 53.9277C40.7682 53.9277 39.2393 55.4567 39.2393 57.3428C39.2393 59.2288 40.7682 60.7578 42.6543 60.7578Z" fill="#603833"/>
<path d="M42.221 57.2598C42.7985 56.949 43.0459 56.287 42.7737 55.7811C42.5014 55.2752 41.8126 55.117 41.2351 55.4278C40.6576 55.7385 40.4102 56.4006 40.6824 56.9065C40.9547 57.4124 41.6435 57.5706 42.221 57.2598Z" fill="#FFF6F7"/>
<path d="M49.0192 68.1129C49.3921 68.1326 49.7723 68.0884 50.1501 67.9706C51.8405 67.4432 52.785 65.6375 52.2576 63.9472C52.1815 63.7043 51.9239 63.5694 51.681 63.6454C51.4381 63.7215 51.3032 63.9791 51.3793 64.2219C51.7571 65.429 51.0824 66.717 49.8754 67.0924C48.6683 67.4702 47.3803 66.7955 47.005 65.5885C46.9289 65.3456 46.6713 65.2106 46.4284 65.2867C46.1856 65.3627 46.0506 65.6203 46.1267 65.8632C46.5364 67.1758 47.7189 68.0418 49.0192 68.1129Z" fill="#603833"/>
<path d="M54.2721 66.4692C54.645 66.4888 55.0253 66.4446 55.4031 66.3269C57.0934 65.7994 58.0379 63.9937 57.5105 62.3034C57.4344 62.0605 57.1768 61.9256 56.9339 62.0016C56.6911 62.0777 56.5561 62.3353 56.6322 62.5782C57.01 63.7852 56.3353 65.0732 55.1283 65.4486C53.9213 65.8264 52.6333 65.1517 52.2579 63.9447C52.1818 63.7018 51.9242 63.5669 51.6814 63.6429C51.4385 63.719 51.3036 63.9766 51.3796 64.2195C51.7893 65.5344 52.9718 66.398 54.2721 66.4692Z" fill="#603833"/>
<path d="M51.8723 64.3667C51.8723 64.3667 54.1612 61.5355 53.2167 60.7725C52.7923 60.4291 51.8355 60.5419 50.9228 60.8609L50.6505 60.9467C49.7183 61.2043 48.8669 61.6557 48.7148 62.1808C48.3738 63.3461 51.8674 64.3691 51.8674 64.3691" fill="#603833"/>
<path d="M51.0587 69.4671C50.2515 69.1752 49.6554 68.5864 49.4247 67.8504L49.2383 67.2321L49.8124 66.9377C49.8639 66.9108 51.0562 66.2852 51.3383 64.8549L51.6499 63.2774L52.6803 64.5114C52.6877 64.5188 53.4163 65.3504 54.773 65.3136L55.747 65.2302L55.9334 65.8117C55.9432 65.8411 55.9506 65.8705 55.9604 65.9C56.3554 67.3548 55.2784 68.9274 53.5095 69.4819C53.1023 69.6094 52.6852 69.6732 52.278 69.6732C51.8511 69.6732 51.4389 69.6045 51.0587 69.4671ZM52.4669 66.2631C52.1111 66.9844 51.6156 67.4971 51.2108 67.8283C51.3408 67.9264 51.4782 67.9878 51.5812 68.0246C52.0081 68.1791 52.5429 68.1767 53.0508 68.0172C53.7401 67.8013 54.2725 67.3278 54.4467 66.8396C53.615 66.8004 52.9526 66.5428 52.4669 66.2631Z" fill="#603833"/>
<path d="M55.1988 66.0472C55.2037 66.0668 55.2111 66.084 55.216 66.1036C55.5006 67.1487 54.6444 68.3239 53.2779 68.7508C51.8844 69.185 50.4884 68.6821 50.1572 67.6222C50.1572 67.6222 51.7274 66.847 52.0905 65.0021C52.0905 65.0021 53.0399 66.138 54.8161 66.0766L55.1988 66.0472Z" fill="#FFC2B9"/>
<path d="M64.7239 61.5471C66.3795 61.0304 67.4801 59.8378 67.1822 58.8832C66.8843 57.9287 65.3007 57.5737 63.6452 58.0903C61.9896 58.607 60.8889 59.7996 61.1868 60.7542C61.4847 61.7087 63.0683 62.0637 64.7239 61.5471Z" fill="#FFC2B9"/>
<path d="M43.5642 70.0714C44.9327 69.6443 45.8421 68.6575 45.5955 67.8672C45.3489 67.0769 44.0396 66.7825 42.6711 67.2095C41.3027 67.6366 40.3933 68.6234 40.6399 69.4137C40.8865 70.204 42.1958 70.4984 43.5642 70.0714Z" fill="#FFC2B9"/>
<path d="M57.9609 39.5855C66.945 42.9932 70.3086 49.0186 71.4371 51.8669C71.837 51.3787 72.205 50.8684 72.5362 50.3385C69.867 44.978 64.4745 40.9864 57.9609 39.5855Z" fill="#F4C171"/>
<path d="M60.13 85.6788C62.199 85.6788 63.8763 84.0015 63.8763 81.9325C63.8763 79.8635 62.199 78.1863 60.13 78.1863C58.061 78.1863 56.3838 79.8635 56.3838 81.9325C56.3838 84.0015 58.061 85.6788 60.13 85.6788Z" fill="#603833"/>
<path d="M60.1299 79.4301C61.5111 79.4301 62.6323 80.5513 62.6323 81.9325C62.6323 82.9261 62.0533 83.7799 61.2142 84.1847V83.272C61.2142 83.0242 61.0106 82.8206 60.7628 82.8206H59.806C59.5582 82.8206 59.3546 83.0242 59.3546 83.272V84.3123C58.3512 83.986 57.625 83.0439 57.625 81.9325C57.6275 80.5513 58.7462 79.4301 60.1299 79.4301Z" fill="#FEEA93"/>
<path d="M59.6437 91.5741C59.2168 91.5741 58.8071 91.3435 58.5912 90.9461C58.2895 90.3892 58.4735 89.6973 59.0083 89.3612L70.6518 82.0552C71.0222 81.8221 71.4884 81.8099 71.8711 82.0233C72.2514 82.2343 72.4893 82.6366 72.4869 83.0733L72.482 85.0139C72.482 85.48 72.2097 85.9045 71.7852 86.0983L60.1466 91.4637C59.9847 91.5373 59.813 91.5741 59.6437 91.5741Z" fill="#603833"/>
<path d="M59.6465 90.3745L71.29 83.0685L71.2851 85.009L59.6465 90.3745Z" fill="#D4E4F3"/>
<path d="M58.8264 92.6487C58.3382 92.6487 57.8843 92.347 57.7052 91.8686C57.4844 91.2748 57.7641 90.61 58.3456 90.3548L73.1024 83.8486C73.4802 83.6818 73.9169 83.721 74.2603 83.9541C74.6013 84.1872 74.8001 84.5772 74.7853 84.9919L74.7093 87.006C74.6897 87.5163 74.3511 87.9579 73.8629 88.1051L59.1846 92.5996C59.0619 92.634 58.9442 92.6487 58.8264 92.6487Z" fill="#603833"/>
<path d="M58.8291 91.4515L73.5074 86.957L73.5859 84.9428L58.8291 91.4515Z" fill="#D4E4F3"/>
<path d="M56.7757 91.5668C57.2025 91.5668 57.6122 91.3411 57.8306 90.9436C58.1348 90.3892 57.9557 89.6949 57.4209 89.3563L45.8142 81.9939C45.4462 81.7608 44.98 81.7461 44.5949 81.9546C44.2121 82.1656 43.9742 82.5655 43.9717 83.0022L43.9668 84.9428C43.9668 85.4089 44.2342 85.8333 44.6586 86.032L56.2703 91.4539C56.4346 91.53 56.6064 91.5668 56.7757 91.5668Z" fill="#603833"/>
<path d="M56.7776 90.3671L45.1709 83.0046L45.166 84.9477L56.7776 90.3671Z" fill="#D4E4F3"/>
<path d="M57.5887 92.6463C58.0769 92.6463 58.5308 92.3494 58.7123 91.871C58.9356 91.2773 58.6583 90.6124 58.0793 90.3524L43.3544 83.7725C42.9791 83.6033 42.5399 83.6425 42.1965 83.8731C41.853 84.1037 41.6543 84.4938 41.6666 84.9084L41.7328 86.9226C41.75 87.4329 42.0885 87.8745 42.5743 88.0266L57.2329 92.5923C57.3532 92.6291 57.4709 92.6463 57.5887 92.6463Z" fill="#603833"/>
<path d="M57.5901 91.449L42.9339 86.8834L42.8652 84.8692L57.5901 91.449Z" fill="#D4E4F3"/>
<path d="M57.8448 113.99C57.6632 113.99 57.4817 113.968 57.3051 113.926L43.1665 110.529C42.2121 110.298 41.4982 109.488 41.3952 108.512L39.3172 89.3293C39.2338 88.5541 39.5405 87.7911 40.1366 87.2931C40.7328 86.7926 41.5375 86.6233 42.2857 86.8417L57.9601 91.4073L73.7963 86.7828C74.5471 86.5644 75.3518 86.7337 75.9504 87.2367C76.549 87.7396 76.8532 88.5026 76.7673 89.2803L74.5961 108.728C74.4857 109.719 73.7571 110.529 72.7831 110.744L58.3526 113.939C58.1882 113.973 58.0165 113.99 57.8448 113.99ZM44.506 107.563L57.8571 110.771L71.4878 107.756L73.448 90.2125L58.6151 94.5427C58.1882 94.6678 57.7368 94.6678 57.31 94.5427L42.6341 90.2665L44.506 107.563ZM58.2005 91.476H58.203C58.203 91.476 58.203 91.476 58.2005 91.476Z" fill="#603833"/>
<path d="M57.8303 114.052L56.1719 113.654L56.2258 90.897L57.9628 91.4048L73.7991 86.7803C74.5498 86.562 75.3545 86.7313 75.9531 87.2342C76.5517 87.7371 76.8559 88.5001 76.7701 89.2778L74.5989 108.725C74.4885 109.717 73.7598 110.526 72.7858 110.742L57.8303 114.052ZM59.4127 94.312L59.3735 110.438L71.488 107.756L73.4482 90.2125L59.4127 94.312Z" fill="#603833"/>
<path d="M57.7573 93.0118L41.8425 88.375C41.342 88.2278 40.8513 88.64 40.9078 89.1576L42.9857 108.34C43.0201 108.647 43.2433 108.902 43.5426 108.973L57.6787 112.371C57.7867 112.398 57.8995 112.398 58.0075 112.373L72.438 109.179C72.7447 109.111 72.9728 108.855 73.0072 108.544L75.1784 89.0963C75.2372 88.5762 74.7466 88.164 74.2436 88.3112L58.1645 93.0069C58.0345 93.0511 57.8922 93.051 57.7573 93.0118Z" fill="#D4E4F3"/>
<path d="M57.7725 112.396L57.8436 112.413L72.4385 109.184C72.7451 109.115 72.9733 108.86 73.0077 108.549L75.1788 89.1012C75.2377 88.5811 74.7471 88.1689 74.2441 88.3161L57.9589 93.0707L57.8142 93.0289L57.7725 112.396Z" fill="#A5CBEF"/>
<path d="M101.554 105.416C101.446 105.416 101.338 105.413 101.231 105.411C94.5158 105.224 91.0639 105.222 91.032 105.222H83.8462C83.7138 105.222 83.5837 105.188 83.466 105.124C83.3875 105.08 81.5327 104.042 81.2359 102.138C81.0421 100.902 81.5376 99.6456 82.7054 98.4091C84.516 96.4906 86.6111 96.1594 88.0512 96.2183C90.4457 96.3164 92.4378 97.5088 93.348 98.6471C93.6203 98.9881 93.5639 99.4837 93.2253 99.7536C92.8868 100.026 92.3912 99.9695 92.1189 99.6309C91.4319 98.7722 89.7931 97.8645 87.9875 97.7909C86.8786 97.7443 85.2569 98.0019 83.8511 99.4911C83.0366 100.352 82.6809 101.159 82.7913 101.886C82.9262 102.779 83.7285 103.411 84.0719 103.645H91.0296C91.0639 103.645 94.5329 103.647 101.272 103.833C103.159 103.887 104.594 103.414 105.546 102.43C106.925 101.005 106.905 98.9366 106.895 98.6741C105.028 86.0492 98.5711 77.5411 87.7029 73.39C79.5529 70.2768 71.8789 70.9073 71.8004 70.9122C71.3735 70.9514 70.9859 70.63 70.9466 70.1958C70.9074 69.7616 71.2287 69.3813 71.663 69.342C71.9917 69.3126 79.7811 68.6747 88.2647 71.9156C96.1374 74.9234 106.032 81.9743 108.458 98.4827C108.461 98.5048 108.463 98.5269 108.465 98.549C108.473 98.6692 108.622 101.513 106.677 103.524C105.465 104.78 103.743 105.416 101.554 105.416Z" fill="#603833"/>
<path d="M84.8723 97.7074C84.6761 97.7074 84.4773 97.6437 84.3105 97.5136C84.1609 97.3983 80.6526 94.6261 80.5888 90.8209C80.552 88.6424 81.6339 86.6208 83.8027 84.8127C84.1928 84.4889 84.7717 84.5404 85.098 84.9305C85.4219 85.3206 85.3703 85.8996 84.9803 86.2258C83.2629 87.6586 82.4043 89.1895 82.4264 90.7817C82.4705 93.7012 85.4096 96.0392 85.439 96.0637C85.8389 96.3753 85.9101 96.9543 85.5961 97.3542C85.417 97.5872 85.1471 97.7074 84.8723 97.7074Z" fill="#603833"/>
<path d="M107.083 99.6996L106.813 98.8949C106.764 98.7477 105.608 95.2909 105.63 93.2694L105.64 92.4402L106.464 92.3641C106.54 92.3567 110.007 91.9716 111.754 89.2803C113.079 87.2391 113.132 84.3564 111.918 80.7108C109.124 72.3302 108.667 67.87 110.292 64.8034C111.344 62.8162 113.26 61.4889 116.322 60.6253C119.641 59.6882 121.297 60.7014 121.989 61.3883C122.921 62.3132 123.228 63.6724 122.831 65.1125C122.35 66.8617 120.664 69.0206 117.377 69.9112C117.065 70.2301 116.013 71.6825 117.784 75.4925L117.872 75.6814C119.516 79.2191 122.578 85.8039 119.86 91.5054C118.069 95.2639 114.048 97.9503 107.909 99.491L107.083 99.6996ZM107.514 94.0446C107.644 95.1339 108.01 96.5274 108.295 97.4867C113.4 96.0662 116.729 93.7895 118.196 90.7155C120.542 85.7965 117.718 79.7221 116.202 76.4591L116.113 76.2702C113.343 70.3037 116.337 68.373 116.467 68.292L116.587 68.2184L116.724 68.1841C119.381 67.5192 120.718 65.8534 121.057 64.6267C121.273 63.8441 121.138 63.14 120.691 62.6959C119.999 62.0066 118.586 61.8986 116.82 62.3966C114.276 63.1155 112.715 64.1532 111.916 65.6645C110.574 68.1963 111.079 72.3891 113.66 80.1293C115.063 84.3417 114.936 87.7617 113.282 90.2984C111.626 92.8327 108.91 93.7355 107.514 94.0446Z" fill="#603833"/>
<path d="M77.3778 91.4883C78.4917 91.6845 78.4917 91.6845 78.4917 91.6845C78.4917 91.6845 81.5068 94.4396 81.3768 96.471C81.2467 98.5024 79.343 102.307 78.4254 102.504C77.5079 102.7 75.0153 104.601 74.949 102.57C74.8828 100.536 74.8828 100.536 74.8828 100.536L76.1953 91.5521L77.3778 91.4883Z" fill="white"/>
<path d="M76.4178 93.7061C76.4178 93.7061 81.8715 98.7649 75.721 102.933C75.721 102.933 78.3314 103.642 79.2146 102.096C80.0978 100.551 82.453 97.7541 80.9074 94.9573C79.3618 92.1605 76.7858 91.2773 76.7858 91.2773C76.7858 91.2773 74.2073 92.4549 76.4178 93.7061Z" fill="#D4E4F3"/>
<path d="M74.8707 104.636C74.8167 104.636 74.7848 104.636 74.7824 104.633C74.5591 104.623 74.3506 104.52 74.2058 104.354C74.0586 104.187 73.9875 103.966 74.0071 103.743L75.1209 90.9559C75.1405 90.7302 75.2534 90.5217 75.4325 90.3818C75.6116 90.242 75.8422 90.1831 76.0679 90.2199C78.455 90.6051 82.7508 92.7615 81.9289 98.1687C80.977 104.41 75.6288 104.636 74.8707 104.636ZM76.669 92.0672L75.722 102.933C77.1057 102.715 79.7185 101.785 80.3073 97.9234C80.8985 94.0324 78.1385 92.5653 76.669 92.0672Z" fill="#603833"/>
<path d="M78.7563 96.5593C78.7465 96.5593 78.7342 96.5593 78.722 96.5593L75.4443 96.363C75.1426 96.3459 74.9144 96.0858 74.9316 95.784C74.9487 95.4823 75.2039 95.2541 75.5106 95.2713L78.7882 95.4676C79.09 95.4847 79.3181 95.7448 79.301 96.0465C79.2838 96.336 79.0434 96.5593 78.7563 96.5593Z" fill="#603833"/>
<path d="M78.7563 99.9695C78.7465 99.9695 78.7342 99.9695 78.722 99.9695L75.4443 99.7732C75.1426 99.756 74.9144 99.496 74.9316 99.1942C74.9487 98.8924 75.2039 98.6643 75.5106 98.6815L78.7882 98.8777C79.09 98.8949 79.3181 99.1549 79.301 99.4567C79.2838 99.7462 79.0434 99.9695 78.7563 99.9695Z" fill="#603833"/>
<path d="M38.6485 91.8194C37.5347 92.0157 37.5347 92.0157 37.5347 92.0157C37.5347 92.0157 34.5196 94.7708 34.6496 96.8022C34.7796 98.8335 36.6834 102.639 37.601 102.835C38.5185 103.031 41.0111 104.932 41.0773 102.901C41.1436 100.867 41.1436 100.867 41.1436 100.867L39.831 91.8832L38.6485 91.8194Z" fill="white"/>
<path d="M40.8344 103.637C40.6799 103.517 40.5057 103.392 40.307 103.262C34.2276 99.3511 39.7623 93.9244 39.7623 93.9244C39.6887 93.7428 39.6176 92.7934 39.4042 91.8587L38.6485 91.817C37.5347 92.0132 37.5347 92.0132 37.5347 92.0132C37.5347 92.0132 34.5196 94.7683 34.6496 96.7997C34.7796 98.831 36.6834 102.636 37.601 102.832C38.3541 102.997 40.177 104.314 40.8344 103.637Z" fill="#D4E4F3"/>
<path d="M34.1 98.4999C33.2782 93.0927 37.574 90.9362 39.9611 90.5511C40.1843 90.5143 40.4149 90.5731 40.5965 90.713C40.7756 90.8528 40.8884 91.0614 40.908 91.2871L42.0219 104.074C42.0415 104.297 41.9703 104.515 41.8231 104.685C41.6759 104.854 41.4674 104.955 41.2466 104.964C41.2417 104.964 41.2123 104.967 41.1583 104.967C40.3977 104.967 35.0495 104.741 34.1 98.4999ZM35.7192 98.2521C36.308 102.114 38.9208 103.043 40.3045 103.262L39.3575 92.396C37.888 92.8964 35.128 94.3635 35.7192 98.2521Z" fill="#603833"/>
<path d="M37.2702 96.8905C37.28 96.8905 37.2922 96.8905 37.3045 96.8905L40.5822 96.6942C40.8839 96.677 41.1121 96.417 41.0949 96.1152C41.0777 95.8135 40.8226 95.5853 40.5159 95.6025L37.2383 95.7987C36.9365 95.8159 36.7083 96.076 36.7255 96.3777C36.7427 96.6672 36.9831 96.8905 37.2702 96.8905Z" fill="#603833"/>
<path d="M37.2702 100.301C37.28 100.301 37.2922 100.301 37.3045 100.301L40.5822 100.104C40.8839 100.087 41.1121 99.8271 41.0949 99.5253C41.0777 99.2236 40.8226 98.9954 40.5159 99.0126L37.2383 99.2089C36.9365 99.226 36.7083 99.4861 36.7255 99.7879C36.7427 100.077 36.9831 100.301 37.2702 100.301Z" fill="#603833"/>
<path d="M78.0952 103.824H83.23L82.4253 102.406L77.9063 102.359C77.9063 102.359 77.1506 103.635 78.0952 103.824Z" fill="#603833"/>
</svg>
