<svg width="22" height="22" viewBox="0 0 22 22" fill="none" xmlns="http://www.w3.org/2000/svg">
<path d="M11.4399 4.82936V6.93102C13.4199 7.23242 14.7061 8.58014 14.945 10.5601H17.0387C16.78 7.48014 14.5199 5.15562 11.4399 4.82936ZM11.4399 0.533203V2.96068C15.3999 3.29882 18.6364 6.38014 18.9041 10.5601H21.3314C21.0572 5.06014 16.9399 0.880143 11.4399 0.533203Z" fill="white"/>
<path d="M19.525 17.1597C19.525 17.1597 16.4725 14.3272 15.4275 13.3647C14.3825 12.4022 13.7225 13.0072 13.7225 13.0072C13.7225 13.0072 12.87 13.7497 12.2375 14.4922C11.605 15.2347 10.89 15.7572 10.89 15.7572C10.175 15.7022 8.79997 14.6847 8.79997 14.6847C6.10497 12.4847 6.26997 10.6972 6.26997 10.6972L8.74497 8.30469C9.37747 7.72719 8.93747 6.98469 8.93747 6.98469L4.61997 2.39219C4.61997 2.39219 4.15247 1.97969 3.51997 2.33719L0.962471 4.53719C0.632471 5.22469 0.907471 7.28719 0.907471 7.28719C1.13847 9.13541 1.52699 11.1143 2.45803 12.7557C3.52569 14.6383 4.84129 16.4271 6.58105 17.7442C7.61967 18.5305 8.78215 19.1813 9.96509 19.7253C10.1875 19.8279 10.4104 19.9152 10.6425 19.9922C11.9823 20.547 13.4066 20.9446 14.8533 21.0863C15.8219 21.1813 16.8119 21.4497 17.5214 20.6449C18.0642 20.0296 18.6388 19.4398 19.195 18.8372C20.185 17.7647 19.525 17.1597 19.525 17.1597ZM16.6835 19.9464C14.6731 19.9123 12.6887 19.5449 10.824 18.7914C9.61617 18.3035 8.47327 17.6468 7.45687 16.8299C6.46489 16.0326 5.54815 14.9436 4.76693 13.9431C4.05413 13.0303 3.46145 12.0315 3.04411 10.9493C2.44769 9.40315 2.16587 7.71795 2.06313 6.06795C2.04333 5.74895 2.03761 5.43325 2.06225 5.11469L4.09725 3.35469L7.85837 7.57913L7.89225 7.61719L5.33497 10.0647C4.63823 10.5414 5.22497 11.9897 5.22497 11.9897C6.37997 15.3812 10.3767 16.8114 10.3767 16.8114C11.4217 17.1782 11.7885 16.5914 11.7885 16.5914L14.4285 13.9882L18.5717 17.8932L16.6835 19.9464Z" fill="white"/>
</svg>
