<svg width="178" height="137" viewBox="0 0 178 137" fill="none" xmlns="http://www.w3.org/2000/svg">
<path d="M0.0868564 129.117C0.0236855 129.04 0 128.966 0 128.866C0 128.466 0.400079 127.879 0.82385 127.292C1.33711 126.592 1.91092 125.918 2.28468 125.918C2.34785 125.918 2.39786 125.942 2.44787 125.982C3.22171 126.655 4.87205 127.506 6.25918 127.506C7.82002 127.506 8.47016 126.992 8.47016 126.355C8.47016 125.618 7.41994 125.168 6.17232 124.645C3.9745 123.744 0.77384 122.407 0.77384 119.109C0.77384 116.061 3.37174 113.811 7.30939 113.811C9.64671 113.811 11.7314 114.611 12.9316 115.648C13.0079 115.711 13.0316 115.822 13.0316 115.948C13.0316 116.348 12.6947 117.011 12.3315 117.559C11.8445 118.322 11.2707 119.096 10.7943 119.096C10.7075 119.096 10.6206 119.072 10.5443 119.022C9.82043 118.472 8.49648 117.985 7.30939 117.985C5.97227 117.985 5.42216 118.412 5.42216 118.996C5.42216 119.62 6.3592 119.983 7.50943 120.457C9.73357 121.357 13.1316 122.731 13.1316 126.355C13.1316 129.403 10.1205 131.628 6.25918 131.628C3.88501 131.628 1.42397 130.651 0.0868564 129.117Z" fill="#FEEA93"/>
<path d="M14.5188 124.992C14.5188 120.944 17.3167 118.37 20.7042 118.37C22.2783 118.37 23.6285 118.62 24.8656 119.333C25.0288 119.42 25.0894 119.607 25.0894 119.857C25.0894 120.294 24.8762 120.907 24.6893 121.381C24.3892 122.168 23.926 123.031 23.5154 123.031C23.4653 123.031 23.4022 123.018 23.3522 122.981C22.6783 122.581 21.9413 122.32 21.128 122.32C19.7172 122.32 18.7407 123.457 18.7407 124.995C18.7407 126.519 19.7146 127.656 21.128 127.656C21.9413 127.656 22.6889 127.406 23.389 126.982C23.4522 126.958 23.5022 126.945 23.5627 126.945C23.976 126.945 24.3629 127.719 24.6498 128.482C24.8498 129.006 25.063 129.706 25.063 130.183C25.063 130.409 25.013 130.583 24.8893 130.646C23.6522 131.37 22.2519 131.62 20.7042 131.62C17.3167 131.614 14.5188 129.077 14.5188 124.992Z" fill="#FEEA93"/>
<path d="M27.6372 130.964V113.024C27.6372 112.51 28.6874 112.51 29.7482 112.51C30.7984 112.51 31.8592 112.51 31.8592 113.024V120.146C32.5961 119.109 33.7095 118.346 35.194 118.346C37.8314 118.346 39.466 120.346 39.466 123.681V130.964C39.466 131.478 38.4158 131.478 37.355 131.478C36.2943 131.478 35.2441 131.478 35.2441 130.964V123.968C35.2441 123.094 34.744 122.331 33.7201 122.331C32.533 122.331 31.8592 123.244 31.8592 124.318V130.964C31.8592 131.478 30.7853 131.478 29.735 131.478C28.6875 131.478 27.6372 131.478 27.6372 130.964Z" fill="#FEEA93"/>
<path d="M41.5585 124.992C41.5585 121.331 44.0459 118.37 48.0309 118.37C52.0291 118.37 54.527 121.331 54.527 124.992C54.527 128.64 52.0291 131.614 48.0309 131.614C44.0432 131.614 41.5585 128.64 41.5585 124.992ZM50.3419 124.992C50.3419 123.518 49.418 122.318 48.0309 122.318C46.6569 122.318 45.733 123.505 45.733 124.992C45.733 126.466 46.6569 127.653 48.0309 127.653C49.4154 127.653 50.3419 126.455 50.3419 124.992Z" fill="#FEEA93"/>
<path d="M55.9009 124.992C55.9009 121.331 58.3883 118.37 62.3733 118.37C66.3715 118.37 68.8694 121.331 68.8694 124.992C68.8694 128.64 66.3715 131.614 62.3733 131.614C58.3883 131.614 55.9009 128.64 55.9009 124.992ZM64.6843 124.992C64.6843 123.518 63.7604 122.318 62.3733 122.318C60.9994 122.318 60.0755 123.505 60.0755 124.992C60.0755 126.466 60.9994 127.653 62.3733 127.653C63.7604 127.653 64.6843 126.455 64.6843 124.992Z" fill="#FEEA93"/>
<path d="M71.2198 127.84V113.058C71.2198 112.545 72.2701 112.545 73.3176 112.545C74.3652 112.545 75.4154 112.545 75.4154 113.058V126.913C75.4154 127.337 75.6155 127.65 76.1287 127.65C76.3419 127.65 76.5788 127.627 76.8421 127.55C76.8789 127.537 76.9158 127.537 76.9552 127.537C77.4053 127.537 77.4053 128.437 77.4053 129.348C77.4053 130.322 77.4053 131.309 76.9552 131.399C76.2314 131.549 75.4944 131.612 74.7943 131.612C72.3701 131.614 71.2198 129.904 71.2198 127.84Z" fill="#FEEA93"/>
<path d="M84.5384 130.964V114.435C84.5384 114.235 84.6885 114.071 84.8753 114.071H92.0584C94.9458 114.071 97.4937 116.309 97.4937 119.77C97.4937 121.931 96.4698 123.631 94.9695 124.531L98.3176 130.817C98.3544 130.891 98.3807 130.967 98.3807 131.03C98.3807 131.48 97.3805 131.48 96.3935 131.48C95.2564 131.48 94.1193 131.48 93.9325 131.106L91.1082 125.471H88.8209V130.97C88.8209 131.47 87.747 131.483 86.6731 131.483C85.5992 131.483 84.5384 131.464 84.5384 130.964ZM92.9717 119.783C92.9717 118.922 92.2847 118.222 91.4214 118.222H88.8235V121.346H91.4214C92.2847 121.344 92.9717 120.644 92.9717 119.783Z" fill="#A5CBEF"/>
<path d="M99.4836 128.153C99.4836 125.816 101.495 124.442 104.332 123.892L106.156 123.542V122.918C106.156 122.344 105.793 121.931 105.006 121.931C104.045 121.931 102.932 122.168 101.608 122.868C101.558 122.892 101.508 122.905 101.458 122.905C101.094 122.905 100.734 122.231 100.434 121.504C100.234 121.017 100.047 120.554 100.047 120.204C100.047 119.978 100.121 119.804 100.31 119.704C102.034 118.78 103.508 118.367 105.222 118.367C108.383 118.367 110.331 119.717 110.331 123.239V130.972C110.331 131.472 109.37 131.472 108.406 131.472C107.433 131.472 106.459 131.472 106.459 130.972V129.872C105.735 130.922 104.708 131.609 103.011 131.609C101.044 131.614 99.4836 130.501 99.4836 128.153ZM106.153 126.806V126.018L104.693 126.319C104.129 126.405 103.682 126.782 103.682 127.329C103.682 127.803 104.056 128.143 104.619 128.143C105.643 128.14 106.153 127.403 106.153 126.806Z" fill="#A5CBEF"/>
<path d="M113.602 130.964V119.02C113.602 118.52 114.589 118.52 115.576 118.52C116.563 118.52 117.55 118.52 117.55 119.02V120.37C118.364 119.246 119.411 118.37 120.975 118.37C123.586 118.37 125.336 120.357 125.336 123.668V130.964C125.336 131.478 124.299 131.478 123.238 131.478C122.201 131.478 121.141 131.478 121.141 130.964V123.942C121.141 123.078 120.667 122.318 119.64 122.318C118.453 122.318 117.793 123.231 117.793 124.292V130.964C117.793 131.478 116.742 131.478 115.695 131.478C114.639 131.478 113.602 131.478 113.602 130.964Z" fill="#A5CBEF"/>
<path d="M128.532 130.964V112.824C128.532 112.31 129.582 112.31 130.629 112.31C131.677 112.31 132.717 112.31 132.717 112.824V122.944L136.215 118.87C136.489 118.483 137.826 118.506 139.113 118.506C140.026 118.506 140.874 118.52 140.874 118.907C140.874 118.993 140.824 119.093 140.737 119.22L136.338 124.405L141.187 130.777C141.261 130.891 141.3 130.977 141.3 131.051C141.3 131.488 140.237 131.488 139.176 131.488C137.926 131.488 136.665 131.488 136.428 131.125L132.717 126.116V130.964C132.717 131.478 131.666 131.478 130.629 131.478C129.569 131.478 128.532 131.478 128.532 130.964Z" fill="#A5CBEF"/>
<path d="M142.463 114.998C142.463 113.537 143.264 112.66 144.974 112.66C146.685 112.66 147.486 113.534 147.486 114.998C147.486 116.448 146.685 117.322 144.974 117.322C143.264 117.322 142.463 116.445 142.463 114.998ZM142.877 130.964V119.02C142.877 118.506 143.927 118.506 144.988 118.506C146.025 118.506 147.062 118.506 147.062 119.02V130.964C147.062 131.478 146.025 131.478 144.974 131.478C143.927 131.478 142.877 131.478 142.877 130.964Z" fill="#A5CBEF"/>
<path d="M150.536 130.964V119.02C150.536 118.52 151.523 118.52 152.51 118.52C153.497 118.52 154.484 118.52 154.484 119.02V120.37C155.298 119.246 156.345 118.37 157.909 118.37C160.52 118.37 162.27 120.357 162.27 123.668V130.964C162.27 131.478 161.233 131.478 160.172 131.478C159.135 131.478 158.075 131.478 158.075 130.964V123.942C158.075 123.078 157.601 122.318 156.574 122.318C155.387 122.318 154.726 123.231 154.726 124.292V130.964C154.726 131.478 153.676 131.478 152.629 131.478C151.573 131.478 150.536 131.478 150.536 130.964Z" fill="#A5CBEF"/>
<path d="M165.805 135.439C165.642 135.363 165.581 135.189 165.581 134.965C165.581 134.565 165.781 133.991 165.981 133.441C166.255 132.641 166.595 131.83 167.092 131.83C167.155 131.83 167.229 131.843 167.292 131.867C168.129 132.28 169.579 132.567 170.403 132.567C171.567 132.567 173.051 132.18 173.051 130.767V129.33C172.177 130.58 170.89 131.117 169.69 131.117C166.505 131.117 164.381 128.406 164.381 124.745C164.381 121.083 166.505 118.372 169.69 118.372C170.977 118.372 172.364 118.996 173.288 120.333V119.009C173.288 118.509 174.275 118.509 175.262 118.509C176.249 118.509 177.236 118.509 177.236 119.009V130.854C177.199 134.889 174.199 136.402 170.84 136.402C169.277 136.4 167.116 136.136 165.805 135.439ZM173.288 124.992C173.288 123.518 172.314 122.318 170.927 122.318C169.54 122.318 168.566 123.518 168.566 124.992C168.566 126.466 169.54 127.653 170.927 127.653C172.314 127.653 173.288 126.466 173.288 124.992Z" fill="#A5CBEF"/>
<path d="M127.787 89.7216C127.787 89.7216 137.389 88.2344 135.225 78.6325C133.062 69.0305 129.95 60.5103 134.82 57.1281C139.689 53.7458 144.559 55.6409 144.693 57.3992C144.827 59.1574 144.151 61.9975 140.905 63.2135C137.66 64.4296 137.794 66.1878 139.147 69.4358C140.5 72.6813 144.693 87.1526 138.742 91.0745C132.79 94.9963 129.411 95.1306 129.411 95.1306C129.411 95.1306 128.192 93.7777 127.787 89.7216Z" fill="white"/>
<path d="M134.82 57.1281C129.95 60.5103 133.062 69.0305 135.225 78.6325C137.389 88.2345 127.787 89.7216 127.787 89.7216C128.192 93.7777 129.411 95.1306 129.411 95.1306C129.411 95.1306 130.69 95.078 133.054 94.1304C132.351 93.0644 132.393 91.4562 135.496 89.3163C141.582 85.1233 136.712 75.2502 135.091 68.7594C133.467 62.2686 136.307 58.6152 139.689 57.6703C143.071 56.7227 142.258 61.321 142.258 61.321C142.258 61.321 142.703 61.3763 143.453 61.4368C144.522 60.1261 144.78 58.5363 144.693 57.3966C144.556 55.6383 139.687 53.7458 134.82 57.1281Z" fill="#D4E4F3"/>
<path d="M65.574 79.7143L66.79 77.5507L85.3175 72.9524L91.2687 65.3798C91.2687 65.3798 106.956 65.2455 115.747 72.2785C115.747 72.2785 124.944 76.3346 128.866 94.0541C128.866 94.0541 130.082 100.682 123.052 101.764C116.019 102.845 103.034 101.358 103.034 101.358C103.034 101.358 100.6 98.7892 102.087 97.031L96.812 96.8967L79.0952 91.3509L65.574 79.7143Z" fill="white"/>
<path d="M125.165 83.1782C120.922 74.558 115.747 72.2759 115.747 72.2759C110.331 67.9408 102.292 66.33 96.9225 65.7325C97.0304 71.6995 101.152 78.0376 107.951 81.6857C113.831 84.8364 120.277 85.2075 125.165 83.1782Z" fill="#FEEA93"/>
<path d="M104.895 81.5383C104.895 81.5383 99.1124 88.4371 109.359 93.6092L104.693 94.6094C104.69 94.6094 96.883 87.0158 104.895 81.5383Z" fill="#D4E4F3"/>
<path d="M67.9745 79.0036C67.9745 79.0036 73.5467 81.9568 86.9415 76.5689C96.2724 72.8155 92.7243 66.122 92.7243 66.122L91.1003 66.63L67.9745 79.0036Z" fill="#D4E4F3"/>
<path d="M91.4056 66.5932C91.4056 66.5932 115.208 67.9461 121.43 84.0389C121.43 84.0389 124.676 90.3954 124.676 95.5359C124.676 100.676 104.658 99.1867 104.658 99.1867C104.658 99.1867 102.089 96.6177 109.122 94.3173C109.122 94.3173 103.577 93.1012 101.413 97.8338C99.2493 102.566 109.799 101.216 114.802 101.35C114.802 101.35 126.705 102.703 128.326 99.4578C129.95 96.2124 127.11 85.934 125.486 83.4993C123.862 81.0646 117.506 66.0536 91.8109 65.106L91.4056 66.5932Z" fill="#D4E4F3"/>
<path d="M121.43 84.0415C121.43 84.0415 121.459 84.0967 121.509 84.202C122.794 83.9941 124.023 83.6545 125.165 83.1781C124.815 82.4675 124.46 81.8015 124.099 81.1751C122.667 78.8667 120.169 75.416 115.797 72.297C115.768 72.2838 115.75 72.2733 115.75 72.2733C115.666 72.2048 115.576 72.1443 115.489 72.0785C113.423 70.6414 110.952 69.2858 107.993 68.154C104.095 66.7774 100.057 66.0773 96.9252 65.7272C96.9357 66.2773 96.9804 66.83 97.0568 67.3854C104.498 68.8568 117.14 72.9471 121.43 84.0415Z" fill="#F4C171"/>
<path d="M63.2841 78.5719C60.2097 77.3533 59.4069 75.137 59.2727 73.4919L59.0727 71.0178L61.3995 71.8811C61.5311 71.9285 74.6969 76.5663 89.2999 60.6762L91.2661 58.5362L91.9952 61.35C92.4769 61.4447 94.451 68.1593 88.3366 73.3998C85.028 76.2346 75.805 79.4195 68.6878 79.4195C66.64 79.4195 64.7738 79.1615 63.2841 78.5719ZM64.5396 75.6634C69.938 77.7086 82.7933 74.1473 86.2151 71.0493C88.1707 69.2779 88.8761 67.1512 89.0788 65.4166C78.9794 75.0449 69.7038 76.0793 64.5396 75.6634Z" fill="#603833"/>
<path d="M90.4659 61.7448C90.4659 61.7448 92.9349 67.2565 87.2758 72.2233C82.4274 76.4794 61.5337 81.791 60.8493 73.363C60.8493 73.363 74.9733 78.6035 90.4659 61.7448Z" fill="#FFA9A8"/>
<path d="M90.0185 41.0169C89.6395 40.9932 89.271 40.8326 88.992 40.5457C88.9367 40.4904 82.9512 34.5998 71.4541 35.2736C70.9304 35.3052 70.4302 35.0735 70.1118 34.6577C69.7959 34.2418 69.7064 33.6943 69.8749 33.1995C70.0565 32.6678 74.4047 20.1547 82.08 18.9465C82.5275 18.8755 82.9855 19.0018 83.3329 19.294C83.5961 19.5151 89.8211 24.8688 91.6741 39.2507C91.7609 39.9193 91.4082 40.5694 90.8002 40.8642C90.5502 40.9826 90.2817 41.0327 90.0185 41.0169ZM75.3655 32.1414C81.1061 32.4993 85.2991 34.305 87.9286 35.879C86.2309 27.6641 83.0776 23.5712 81.8352 22.2209C78.2082 23.3685 75.2286 28.5669 73.6862 32.0808C74.26 32.0861 74.8206 32.1071 75.3655 32.1414Z" fill="#603833"/>
<path d="M71.362 33.7048C71.362 33.7048 75.4971 21.5708 82.3248 20.4969C82.3248 20.4969 88.3208 25.511 90.1159 39.4481C90.1159 39.4481 83.7961 32.9784 71.362 33.7048Z" fill="#FEEA93"/>
<path d="M77.7212 31.557C77.7212 31.557 82.9276 33.3232 84.4647 34.6814C84.4647 34.6814 85.2728 28.9644 82.3485 25.2663C82.3485 25.2663 79.0952 26.8666 77.7212 31.557Z" fill="#FFA9A8"/>
<path d="M45.8094 51.7612C45.4699 51.7401 45.1777 52.9667 44.9092 52.7324L43.9775 51.1847C43.7932 50.7952 43.3826 49.9819 43.2931 49.7371C43.1747 49.4186 40.3978 41.8907 40.0135 35.6974C39.9714 35.0025 40.3873 34.3629 41.04 34.126C41.2795 34.0365 47.0123 31.9992 54.0848 34.4682C54.8139 34.7235 55.2482 35.4684 55.1113 36.229L54.8955 37.424C54.8165 37.8689 54.5481 38.2558 54.1611 38.49C47.1202 42.7409 47.4703 50.0266 47.4729 50.0977C47.5098 50.7294 47.165 51.3242 46.5964 51.6006C46.3464 51.727 46.0753 51.7796 45.8094 51.7612ZM43.2589 36.7792C43.5879 39.6929 44.4012 42.8357 45.0935 45.1572C45.9095 42.5488 47.5808 39.4034 50.9894 36.8502C47.6072 36.0922 44.7618 36.458 43.2589 36.7792Z" fill="#603833"/>
<path d="M53.5663 35.9527C46.9438 33.639 41.5796 35.6026 41.5796 35.6026C41.9534 41.6328 44.7645 49.1922 44.7645 49.1922L45.9068 50.1951C45.9068 50.1951 45.4146 41.9407 53.3504 37.1503L53.5663 35.9527Z" fill="#D4E4F3"/>
<path d="M46.5569 44.3017C46.5569 44.3017 45.3962 42.6961 44.4118 38.2215C44.4118 38.2215 45.6752 36.7686 50.6841 38.7927C50.6841 38.7927 48.6258 40.014 46.5569 44.3017Z" fill="#FFA9A8"/>
<path d="M71.3023 74.5954C85.3241 73.6834 96.0427 62.9767 95.2431 50.6812C94.4434 38.3857 82.4283 29.1574 68.4065 30.0694C54.3848 30.9813 43.6661 41.688 44.4658 53.9836C45.2654 66.2791 57.2806 75.5073 71.3023 74.5954Z" fill="#603833"/>
<path d="M71.1947 72.9406C84.1749 72.0964 94.0974 62.1854 93.3572 50.8038C92.6169 39.4222 81.4943 30.8799 68.5141 31.7241C55.5339 32.5683 45.6115 42.4793 46.3517 53.8609C47.0919 65.2425 58.2145 73.7848 71.1947 72.9406Z" fill="#D4E4F3"/>
<path d="M91.016 49.7318C90.7028 44.4623 88.3576 39.8061 84.7648 36.4186C80.5007 33.1284 74.8627 31.3149 68.7904 31.7439C62.5971 32.1809 57.1249 34.8656 53.2767 38.8533C50.2287 42.683 48.5284 47.5393 48.8363 52.7088C49.5102 64.0005 59.4991 72.4891 71.1462 71.6653C82.7933 70.8414 91.6899 61.0236 91.016 49.7318Z" fill="white"/>
<path d="M91.4556 43.7911C87.6417 36.129 78.6424 31.0701 68.5141 31.7281C65.0686 31.9518 61.8416 32.8204 58.97 34.1812C58.7357 35.3394 58.6462 36.5344 58.7252 37.753C59.2753 46.1969 67.527 52.5376 77.1579 51.9112C83.3776 51.5032 88.6471 48.2894 91.4556 43.7911Z" fill="#FEEA93"/>
<path d="M74.0336 50.3609C76.2505 50.3609 78.0476 48.5638 78.0476 46.3469C78.0476 44.13 76.2505 42.3329 74.0336 42.3329C71.8168 42.3329 70.0197 44.13 70.0197 46.3469C70.0197 48.5638 71.8168 50.3609 74.0336 50.3609Z" fill="#603833"/>
<path d="M73.524 46.2482C74.2025 45.8831 74.4933 45.1056 74.1737 44.5116C73.854 43.9176 73.0449 43.7321 72.3664 44.0972C71.688 44.4623 71.3971 45.2398 71.7168 45.8338C72.0364 46.4278 72.8455 46.6133 73.524 46.2482Z" fill="#FFF6F7"/>
<path d="M59.3964 54.9671C61.4199 54.9671 63.0603 53.3267 63.0603 51.3032C63.0603 49.2797 61.4199 47.6393 59.3964 47.6393C57.3729 47.6393 55.7325 49.2797 55.7325 51.3032C55.7325 53.3267 57.3729 54.9671 59.3964 54.9671Z" fill="#603833"/>
<path d="M58.9309 51.2141C59.5504 50.8807 59.8159 50.1704 59.5238 49.6276C59.2317 49.0849 58.4927 48.9152 57.8731 49.2486C57.2535 49.582 56.988 50.2923 57.2801 50.8351C57.5722 51.3779 58.3113 51.5476 58.9309 51.2141Z" fill="#FFF6F7"/>
<path d="M66.2241 62.8582C66.6242 62.8792 67.0322 62.8319 67.4375 62.7055C69.251 62.1396 70.2644 60.2024 69.6985 58.3888C69.6169 58.1283 69.3405 57.9835 69.0799 58.0651C68.8194 58.1467 68.6746 58.4231 68.7562 58.6836C69.1616 59.9786 68.4377 61.3605 67.1427 61.7632C65.8477 62.1686 64.4658 61.4447 64.0631 60.1497C63.9815 59.8892 63.7052 59.7444 63.4446 59.826C63.184 59.9076 63.0392 60.184 63.1208 60.4445C63.5604 61.8527 64.8291 62.7819 66.2241 62.8582Z" fill="#603833"/>
<path d="M71.8594 61.0946C72.2595 61.1157 72.6675 61.0683 73.0729 60.942C74.8864 60.3761 75.8998 58.4388 75.3338 56.6253C75.2522 56.3647 74.9759 56.22 74.7153 56.3016C74.4547 56.3832 74.31 56.6595 74.3916 56.9201C74.7969 58.2151 74.0731 59.597 72.7781 59.9997C71.4831 60.405 70.1012 59.6812 69.6985 58.3862C69.6169 58.1256 69.3405 57.9809 69.0799 58.0625C68.8193 58.144 68.6746 58.4204 68.7562 58.681C69.1957 60.0918 70.4644 61.0183 71.8594 61.0946Z" fill="#603833"/>
<path d="M69.2853 58.8389C69.2853 58.8389 71.7411 55.8015 70.7277 54.9829C70.2723 54.6144 69.2458 54.7355 68.2667 55.0777L67.9745 55.1698C66.9743 55.4461 66.061 55.9305 65.8978 56.4937C65.5319 57.744 69.28 58.8416 69.28 58.8416" fill="#603833"/>
<path d="M68.4114 64.3111C67.5454 63.9979 66.9058 63.3662 66.6584 62.5766L66.4584 61.9133L67.0743 61.5974C67.1295 61.5685 68.4088 60.8973 68.7115 59.3627L69.0457 57.6703L70.1512 58.9942C70.1591 59.0021 70.9409 59.8944 72.3964 59.855L73.4414 59.7655L73.6414 60.3893C73.6519 60.4209 73.6598 60.4524 73.6704 60.484C74.0941 62.0449 72.9386 63.7321 71.0409 64.3269C70.6039 64.4638 70.1565 64.5322 69.7196 64.5322C69.2616 64.5322 68.8194 64.4585 68.4114 64.3111ZM69.9222 60.8736C69.5406 61.6474 69.0089 62.1975 68.5746 62.5529C68.7141 62.6582 68.8615 62.724 68.972 62.7634C69.43 62.9293 70.0038 62.9266 70.5487 62.7555C71.2883 62.5239 71.8595 62.0159 72.0464 61.4921C71.1541 61.45 70.4434 61.1736 69.9222 60.8736Z" fill="#603833"/>
<path d="M72.8544 60.6419C72.8597 60.663 72.8676 60.6814 72.8728 60.7025C73.1782 61.8238 72.2596 63.0845 70.7935 63.5425C69.2984 64.0084 67.8008 63.4688 67.4454 62.3318C67.4454 62.3318 69.13 61.5 69.5195 59.5207C69.5195 59.5207 70.5382 60.7393 72.4438 60.6735L72.8544 60.6419Z" fill="#FFC2B9"/>
<path d="M83.0736 55.8138C84.8498 55.2595 86.0307 53.98 85.7111 52.9559C85.3915 51.9318 83.6925 51.5509 81.9163 52.1052C80.14 52.6595 78.9592 53.9391 79.2788 54.9632C79.5984 55.9873 81.2974 56.3681 83.0736 55.8138Z" fill="#FFC2B9"/>
<path d="M60.3723 64.9594C61.8404 64.5012 62.8161 63.4425 62.5515 62.5946C62.2869 61.7467 60.8823 61.4308 59.4141 61.889C57.9459 62.3471 56.9702 63.4059 57.2348 64.2538C57.4994 65.1016 58.9041 65.4176 60.3723 64.9594Z" fill="#FFC2B9"/>
<path d="M75.8182 32.2519C85.457 35.9079 89.0656 42.3724 90.2764 45.4283C90.7055 44.9045 91.1003 44.357 91.4556 43.7885C88.5919 38.0373 82.8065 33.7548 75.8182 32.2519Z" fill="#F4C171"/>
<path d="M78.145 81.7042C80.3647 81.7042 82.1642 79.9047 82.1642 77.6849C82.1642 75.4651 80.3647 73.6657 78.145 73.6657C75.9252 73.6657 74.1257 75.4651 74.1257 77.6849C74.1257 79.9047 75.9252 81.7042 78.145 81.7042Z" fill="#603833"/>
<path d="M78.145 75.0001C79.6269 75.0001 80.8297 76.203 80.8297 77.6849C80.8297 78.7509 80.2086 79.6669 79.3084 80.1012V79.122C79.3084 78.8562 79.0899 78.6377 78.8241 78.6377H77.7975C77.5317 78.6377 77.3132 78.8562 77.3132 79.122V80.2381C76.2367 79.888 75.4576 78.8773 75.4576 77.6849C75.4602 76.203 76.6605 75.0001 78.145 75.0001Z" fill="#FEEA93"/>
<path d="M77.6238 88.0291C77.1658 88.0291 76.7263 87.7817 76.4946 87.3553C76.1709 86.7578 76.3683 86.0156 76.9421 85.655L89.4341 77.8165C89.8316 77.5665 90.3317 77.5533 90.7423 77.7823C91.1503 78.0087 91.4056 78.4403 91.403 78.9088L91.3977 80.9909C91.3977 81.491 91.1055 81.9463 90.6502 82.1543L78.1634 87.9107C77.9897 87.9897 77.8054 88.0291 77.6238 88.0291Z" fill="#603833"/>
<path d="M77.6264 86.742L90.1185 78.9036L90.1132 80.9856L77.6264 86.742Z" fill="#D4E4F3"/>
<path d="M76.7473 89.182C76.2235 89.182 75.7366 88.8583 75.5444 88.345C75.3076 87.708 75.6076 86.9947 76.2314 86.721L92.0636 79.7406C92.469 79.5616 92.9375 79.6037 93.306 79.8538C93.6719 80.1038 93.8851 80.5223 93.8693 80.9672L93.7877 83.1281C93.7666 83.6756 93.4034 84.1494 92.8796 84.3073L77.1316 89.1294C77 89.1662 76.8737 89.182 76.7473 89.182Z" fill="#603833"/>
<path d="M76.75 87.8975L92.4979 83.0755L92.5821 80.9145L76.75 87.8975Z" fill="#D4E4F3"/>
<path d="M74.5468 88.0212C75.0048 88.0212 75.4444 87.7791 75.6787 87.3527C76.005 86.7578 75.8129 86.0129 75.2391 85.6497L62.7865 77.7507C62.3917 77.5007 61.8916 77.4849 61.4784 77.7086C61.0678 77.935 60.8125 78.364 60.8098 78.8325L60.8046 80.9145C60.8046 81.4146 61.0915 81.87 61.5468 82.0832L74.0046 87.9002C74.181 87.9818 74.3652 88.0212 74.5468 88.0212Z" fill="#603833"/>
<path d="M74.5495 86.7341L62.0969 78.8351L62.0917 80.9198L74.5495 86.7341Z" fill="#D4E4F3"/>
<path d="M75.4181 89.1794C75.9419 89.1794 76.4288 88.8609 76.6236 88.3476C76.8631 87.7107 76.5657 86.9973 75.9445 86.7183L60.1465 79.659C59.7438 79.4774 59.2727 79.5195 58.9042 79.7669C58.5357 80.0143 58.3225 80.4328 58.3357 80.8777L58.4067 83.0386C58.4251 83.5861 58.7884 84.0599 59.3095 84.2231L75.0364 89.1215C75.1654 89.161 75.2918 89.1794 75.4181 89.1794Z" fill="#603833"/>
<path d="M75.4207 87.8949L59.6965 82.9965L59.6228 80.8356L75.4207 87.8949Z" fill="#D4E4F3"/>
<path d="M75.6945 112.079C75.4997 112.079 75.3049 112.055 75.1154 112.01L59.9465 108.365C58.9226 108.117 58.1567 107.249 58.0461 106.201L55.8167 85.6207C55.7272 84.789 56.0562 83.9704 56.6958 83.4361C57.3354 82.8991 58.1988 82.7175 59.0016 82.9518L75.8182 87.8501L92.8085 82.8886C93.6139 82.6543 94.4773 82.836 95.1195 83.3755C95.7618 83.9151 96.0881 84.7337 95.996 85.5681L93.6666 106.433C93.5481 107.496 92.7664 108.365 91.7215 108.596L76.2393 112.024C76.063 112.06 75.8787 112.079 75.6945 112.079ZM61.3836 105.183L75.7076 108.625L90.3317 105.391L92.4348 86.5683L76.521 91.214C76.063 91.3482 75.5787 91.3482 75.1207 91.214L59.3753 86.6262L61.3836 105.183ZM76.0761 87.9238H76.0788C76.0788 87.9238 76.0788 87.9238 76.0761 87.9238Z" fill="#603833"/>
<path d="M75.6787 112.145L73.8994 111.718L73.9573 87.3027L75.8208 87.8475L92.8111 82.886C93.6166 82.6517 94.4799 82.8333 95.1221 83.3729C95.7644 83.9125 96.0907 84.7311 95.9986 85.5655L93.6692 106.43C93.5508 107.494 92.769 108.362 91.7241 108.594L75.6787 112.145ZM77.3764 90.9666L77.3343 108.267L90.3317 105.391L92.4347 86.5683L77.3764 90.9666Z" fill="#603833"/>
<path d="M75.5997 89.5716L58.5252 84.5969C57.9882 84.4389 57.4618 84.8811 57.5223 85.4365L59.7517 106.017C59.7886 106.346 60.0281 106.62 60.3492 106.696L75.5155 110.342C75.6313 110.371 75.7524 110.371 75.8682 110.344L91.3503 106.917C91.6793 106.844 91.9241 106.57 91.961 106.236L94.2904 85.3707C94.3536 84.8127 93.8271 84.3705 93.2876 84.5284L76.0367 89.5663C75.8972 89.6137 75.7445 89.6137 75.5997 89.5716Z" fill="#D4E4F3"/>
<path d="M75.6155 110.368L75.6918 110.386L91.3503 106.922C91.6793 106.849 91.9241 106.575 91.961 106.241L94.2904 85.376C94.3536 84.818 93.8271 84.3758 93.2875 84.5337L75.8155 89.6347L75.6603 89.59L75.6155 110.368Z" fill="#A5CBEF"/>
<path d="M122.588 102.88C122.473 102.88 122.357 102.877 122.241 102.874C115.037 102.674 111.333 102.672 111.299 102.672H103.59C103.448 102.672 103.308 102.635 103.182 102.566C103.097 102.519 101.108 101.406 100.789 99.3631C100.581 98.0365 101.113 96.6888 102.366 95.3622C104.308 93.3039 106.556 92.9486 108.101 93.0117C110.67 93.117 112.807 94.3962 113.784 95.6175C114.076 95.9834 114.016 96.5151 113.652 96.8046C113.289 97.0968 112.757 97.0363 112.465 96.673C111.728 95.7518 109.97 94.7779 108.033 94.6989C106.843 94.6489 105.103 94.9253 103.595 96.523C102.721 97.4469 102.339 98.3128 102.458 99.0919C102.603 100.05 103.463 100.729 103.832 100.979H111.297C111.333 100.979 115.055 100.982 122.286 101.182C124.31 101.24 125.85 100.732 126.871 99.6763C128.35 98.147 128.329 95.9281 128.318 95.6465C126.315 82.1016 119.388 72.9734 107.727 68.5199C98.9835 65.1797 90.7502 65.8562 90.666 65.8614C90.208 65.9036 89.7921 65.5587 89.75 65.0929C89.7079 64.627 90.0527 64.219 90.5186 64.1769C90.8713 64.1453 99.2283 63.461 108.33 66.938C116.777 70.165 127.392 77.7297 129.995 95.4412C129.998 95.4649 130 95.4886 130.003 95.5123C130.011 95.6412 130.171 98.6919 128.084 100.85C126.784 102.198 124.936 102.88 122.588 102.88Z" fill="#603833"/>
<path d="M104.69 94.6094C104.479 94.6094 104.266 94.541 104.087 94.4015C103.927 94.2778 100.163 91.3035 100.094 87.2211C100.055 84.8838 101.215 82.7149 103.542 80.775C103.961 80.4276 104.582 80.4828 104.932 80.9014C105.279 81.3199 105.224 81.941 104.806 82.2911C102.963 83.8283 102.042 85.4707 102.066 87.179C102.113 90.3112 105.266 92.8196 105.298 92.8459C105.727 93.1802 105.803 93.8014 105.466 94.2304C105.274 94.4805 104.985 94.6094 104.69 94.6094Z" fill="#603833"/>
<path d="M128.518 96.7467L128.229 95.8834C128.176 95.7255 126.937 92.0168 126.96 89.8479L126.971 88.9583L127.855 88.8767C127.937 88.8688 131.656 88.4556 133.53 85.5681C134.951 83.3782 135.009 80.2855 133.706 76.3741C130.708 67.3828 130.219 62.5976 131.961 59.3075C133.09 57.1754 135.146 55.7515 138.431 54.825C141.992 53.8195 143.769 54.9066 144.511 55.6436C145.511 56.6359 145.84 58.0941 145.414 59.6391C144.898 61.5158 143.09 63.8321 139.563 64.7875C139.229 65.1297 138.099 66.6879 140 70.7756L140.095 70.9783C141.858 74.7738 145.143 81.8384 142.227 87.9554C140.305 91.9879 135.991 94.87 129.406 96.523L128.518 96.7467ZM128.982 90.6797C129.121 91.8484 129.513 93.3434 129.819 94.3726C135.296 92.8486 138.868 90.4059 140.442 87.1079C142.958 81.8305 139.929 75.3134 138.302 71.8127L138.207 71.61C135.236 65.2087 138.447 63.1372 138.586 63.0503L138.715 62.9714L138.863 62.9345C141.713 62.2212 143.148 60.434 143.511 59.118C143.743 58.2783 143.598 57.5229 143.119 57.0465C142.377 56.3069 140.86 56.191 138.965 56.7254C136.236 57.4966 134.562 58.61 133.704 60.2313C132.264 62.9477 132.806 67.446 135.575 75.7503C137.081 80.2697 136.944 83.9388 135.17 86.6604C133.393 89.3794 130.479 90.348 128.982 90.6797Z" fill="#603833"/>
<path d="M96.6488 87.937C97.8438 88.1476 97.8438 88.1476 97.8438 88.1476C97.8438 88.1476 101.079 91.1035 100.939 93.2829C100.8 95.4622 98.7571 99.5447 97.7727 99.7552C96.7883 99.9658 94.1141 102.006 94.043 99.8263C93.9719 97.6443 93.9719 97.6443 93.9719 97.6443L95.3801 88.0054L96.6488 87.937Z" fill="white"/>
<path d="M95.6196 90.3165C95.6196 90.3165 101.471 95.7439 94.8721 100.216C94.8721 100.216 97.6727 100.977 98.6202 99.3183C99.5678 97.6601 102.095 94.6594 100.436 91.6588C98.7782 88.6582 96.0144 87.7107 96.0144 87.7107C96.0144 87.7107 93.2481 88.9741 95.6196 90.3165Z" fill="#D4E4F3"/>
<path d="M93.9588 102.043C93.9009 102.043 93.8666 102.043 93.864 102.04C93.6245 102.029 93.4008 101.919 93.2455 101.74C93.0875 101.561 93.0112 101.324 93.0323 101.084L94.2273 87.3658C94.2483 87.1237 94.3694 86.9 94.5615 86.7499C94.7537 86.5999 95.0011 86.5367 95.2432 86.5762C97.8043 86.9895 102.413 89.3031 101.531 95.1043C100.51 101.8 94.7721 102.043 93.9588 102.043ZM95.8881 88.5582L94.8721 100.216C96.3566 99.9816 99.1598 98.984 99.7916 94.8411C100.426 90.6665 97.4648 89.0925 95.8881 88.5582Z" fill="#603833"/>
<path d="M98.128 93.3776C98.1175 93.3776 98.1043 93.3776 98.0912 93.3776L94.5747 93.167C94.2509 93.1486 94.0061 92.8696 94.0245 92.5459C94.043 92.2221 94.3167 91.9773 94.6457 91.9957L98.1622 92.2063C98.486 92.2247 98.7308 92.5037 98.7123 92.8275C98.6939 93.1381 98.436 93.3776 98.128 93.3776Z" fill="#603833"/>
<path d="M98.128 97.0363C98.1175 97.0363 98.1043 97.0363 98.0912 97.0363L94.5747 96.8257C94.2509 96.8073 94.0061 96.5283 94.0245 96.2045C94.043 95.8808 94.3167 95.636 94.6457 95.6544L98.1622 95.865C98.486 95.8834 98.7308 96.1624 98.7123 96.4861C98.6939 96.7967 98.436 97.0363 98.128 97.0363Z" fill="#603833"/>
<path d="M55.0981 88.2923C53.9032 88.5029 53.9032 88.5029 53.9032 88.5029C53.9032 88.5029 50.6683 91.4588 50.8078 93.6382C50.9473 95.8176 52.9898 99.9 53.9742 100.111C54.9586 100.321 57.6329 102.361 57.7039 100.182C57.775 97.9996 57.775 97.9996 57.775 97.9996L56.3668 88.3608L55.0981 88.2923Z" fill="white"/>
<path d="M57.4434 100.971C57.2775 100.842 57.0907 100.708 56.8775 100.569C50.3551 96.3729 56.2931 90.5507 56.2931 90.5507C56.2142 90.3559 56.1378 89.3373 55.9088 88.3345L55.0981 88.2897C53.9032 88.5003 53.9032 88.5003 53.9032 88.5003C53.9032 88.5003 50.6683 91.4562 50.8078 93.6356C50.9473 95.8149 52.9898 99.8974 53.9742 100.108C54.7823 100.284 56.738 101.698 57.4434 100.971Z" fill="#D4E4F3"/>
<path d="M50.2182 95.4596C49.3364 89.6584 53.9453 87.3448 56.5063 86.9315C56.7459 86.8921 56.9933 86.9552 57.1881 87.1053C57.3802 87.2553 57.5013 87.479 57.5223 87.7212L58.7173 101.44C58.7384 101.679 58.662 101.914 58.5041 102.095C58.3462 102.277 58.1225 102.385 57.8856 102.395C57.8803 102.395 57.8487 102.398 57.7908 102.398C56.9749 102.398 51.2368 102.156 50.2182 95.4596ZM51.9554 95.1938C52.5871 99.3367 55.3903 100.334 56.8748 100.569L55.8588 88.9109C54.2822 89.4479 51.3211 91.0219 51.9554 95.1938Z" fill="#603833"/>
<path d="M53.6189 93.7329C53.6294 93.7329 53.6426 93.7329 53.6558 93.7329L57.1723 93.5224C57.496 93.5039 57.7408 93.2249 57.7224 92.9012C57.704 92.5774 57.4302 92.3326 57.1012 92.3511L53.5847 92.5616C53.261 92.5801 53.0162 92.8591 53.0346 93.1828C53.053 93.4934 53.311 93.7329 53.6189 93.7329Z" fill="#603833"/>
<path d="M53.6189 97.3916C53.6294 97.3916 53.6426 97.3916 53.6558 97.3916L57.1723 97.181C57.496 97.1626 57.7408 96.8836 57.7224 96.5598C57.704 96.2361 57.4302 95.9913 57.1012 96.0097L53.5847 96.2203C53.261 96.2387 53.0162 96.5177 53.0346 96.8415C53.053 97.1521 53.311 97.3916 53.6189 97.3916Z" fill="#603833"/>
<path d="M97.42 101.171H102.929L102.066 99.6499L97.2173 99.5999C97.2173 99.5999 96.4066 100.969 97.42 101.171Z" fill="#603833"/>
<path d="M13.5344 82.886L13.4764 81.7542L17.0982 80.6329L13.3764 79.7959L13.3369 79.0299L16.9535 77.8165L13.2369 77.0769L13.179 75.9451L18.9223 77.2954L18.967 78.1771L15.4821 79.3063L19.0644 80.0802L19.1092 80.954L13.5344 82.886Z" fill="#A5CBEF"/>
<path d="M18.9749 72.3233L18.9039 75.3818L13.2395 75.2528L13.3106 72.1943L14.3056 72.218L14.2608 74.1789L15.5532 74.2079L15.5979 72.2469L16.5771 72.2706L16.5323 74.2316L17.9326 74.2631L17.9774 72.3022L18.9749 72.3233Z" fill="#A5CBEF"/>
<path d="M19.2803 68.1461L19.1381 69.2332L13.5212 68.4988L13.7107 67.0433L17.9826 66.151L14.0818 64.1927L14.2713 62.7371L19.8883 63.4715L19.7461 64.5559L15.6716 63.9821L19.5645 65.9352L19.4566 66.7643L15.1926 67.6539L19.2803 68.1461Z" fill="#A5CBEF"/>
<path d="M19.0855 61.6027L20.1541 62.2818L19.912 63.403L14.8346 60.0629L15.0347 59.1258L21.0306 58.1967L20.7806 59.3575L19.525 59.5443L19.0855 61.6027ZM18.4222 59.6865L16.4981 59.9576L18.1379 61.0104L18.4222 59.6865Z" fill="#A5CBEF"/>
<path d="M21.3991 56.9912L21.0964 58.0572L15.6453 56.5069L15.948 55.4409L21.3991 56.9912ZM18.6986 56.2068L16.4244 53.78L16.7613 52.5929L18.9697 55.1119L22.2098 54.1432L21.8729 55.3303L18.6986 56.2068Z" fill="#A5CBEF"/>
<path d="M23.3285 50.9979L22.3177 53.8853L16.9693 52.0139L17.98 49.1264L18.9197 49.4554L18.2722 51.3058L19.4908 51.7322L20.1383 49.8818L21.0648 50.2056L20.4173 52.056L21.7387 52.5192L22.3862 50.6688L23.3285 50.9979Z" fill="#A5CBEF"/>
<path d="M22.7494 47.684L23.1626 46.7602L23.2363 46.7944C23.4548 46.8918 23.6548 46.9155 23.8364 46.8602C24.0181 46.8049 24.1523 46.6838 24.2392 46.4943C24.3313 46.2916 24.3418 46.1021 24.2734 45.9284C24.2049 45.7547 24.0681 45.6205 23.8601 45.5283C23.5259 45.3783 23.181 45.5073 22.8204 45.9205C22.7731 45.9732 22.7362 46.0153 22.7099 46.0442C22.4019 46.389 22.0913 46.6075 21.7729 46.697C21.4544 46.7865 21.1201 46.7523 20.7674 46.5917C20.2831 46.3732 19.9541 46.0627 19.783 45.6626C19.6119 45.2625 19.6277 44.8387 19.8277 44.3913C20.0172 43.9728 20.2989 43.699 20.6726 43.5674C21.0464 43.4384 21.4754 43.4648 21.9571 43.649L21.5439 44.565L21.5018 44.5466C21.3359 44.4729 21.1806 44.4623 21.0332 44.515C20.8858 44.5676 20.7779 44.6755 20.7042 44.8361C20.6305 45.0019 20.6226 45.1546 20.6832 45.2993C20.7437 45.4415 20.8648 45.5547 21.0438 45.6362C21.1201 45.6705 21.1912 45.6915 21.257 45.6968C21.3228 45.7021 21.3912 45.6968 21.457 45.6731C21.607 45.6231 21.7992 45.4599 22.0334 45.1809C22.1361 45.0572 22.2177 44.9624 22.2756 44.8993C22.5572 44.5992 22.8468 44.4149 23.1495 44.3491C23.4495 44.2807 23.7759 44.3281 24.126 44.486C24.6577 44.7255 25.0183 45.0677 25.2078 45.5099C25.3973 45.9521 25.3815 46.418 25.1604 46.9049C24.9525 47.3656 24.6287 47.6682 24.1865 47.8104C23.7443 47.9499 23.2653 47.9104 22.7494 47.684Z" fill="#A5CBEF"/>
<path d="M21.0306 42.0618L21.5465 41.08L24.4392 42.6014C24.8919 42.8383 25.2315 42.9567 25.4552 42.9541C25.6816 42.9515 25.8553 42.833 25.9764 42.6014C26.0975 42.3698 26.0975 42.1592 25.9711 41.9723C25.8448 41.7854 25.5579 41.5722 25.1051 41.3327L22.2124 39.8114L22.7283 38.8296L25.9106 40.5036C26.2633 40.6905 26.5186 40.8484 26.6765 40.98C26.8318 41.1116 26.9529 41.259 27.0371 41.4222C27.1845 41.6986 27.2556 41.9776 27.2477 42.254C27.2398 42.5303 27.1556 42.8251 26.9924 43.1357C26.8292 43.4463 26.6344 43.6832 26.4107 43.8464C26.1869 44.0096 25.9185 44.1096 25.6052 44.1438C25.4236 44.1649 25.2394 44.1517 25.0551 44.1043C24.8683 44.057 24.5892 43.9332 24.2102 43.7358L21.0306 42.0618Z" fill="#A5CBEF"/>
<path d="M28.7532 39.7692L28.1742 40.7168L23.339 37.7609L24.0417 36.6133C24.2655 36.2475 24.4445 35.9843 24.5787 35.8211C24.7129 35.6579 24.8472 35.5315 24.9814 35.4394C25.2788 35.2446 25.5842 35.1446 25.9027 35.142C26.2211 35.1393 26.5344 35.2315 26.845 35.421C27.2187 35.65 27.474 35.9474 27.6083 36.3106C27.7425 36.6765 27.7372 37.0555 27.5925 37.453L30.2062 37.3898L29.5166 38.519L26.508 38.3953L28.7532 39.7692ZM26.2685 38.2505L26.3975 38.0426C26.6317 37.6609 26.7397 37.3266 26.7239 37.045C26.7055 36.7634 26.5659 36.5396 26.3001 36.3764C26.0422 36.2185 25.8026 36.1869 25.5789 36.2791C25.3552 36.3712 25.1367 36.5923 24.9209 36.945L24.705 37.2977L26.2685 38.2505Z" fill="#A5CBEF"/>
<path d="M32.2698 34.4287L30.522 36.9397L25.8737 33.7022L27.6214 31.1912L28.4374 31.7597L27.3161 33.3679L28.3769 34.1076L29.4982 32.4993L30.3036 33.06L29.1823 34.6682L30.3325 35.4684L31.4538 33.8601L32.2698 34.4287Z" fill="#A5CBEF"/>
<path d="M33.9069 29.0802L35.4704 30.3884L34.7597 31.2385L33.1963 29.9304L29.3718 28.8486L30.1535 27.9142L32.654 28.7275L31.4064 26.4165L32.1829 25.4874L33.9069 29.0802Z" fill="#A5CBEF"/>
<path d="M34.3097 27.3009C34.0859 27.085 33.9017 26.8508 33.7595 26.6007C33.6174 26.3507 33.5174 26.0822 33.4568 25.7953C33.3568 25.311 33.3752 24.8398 33.5069 24.3819C33.6411 23.9239 33.8806 23.5133 34.2281 23.1527C34.4886 22.8816 34.7913 22.671 35.1388 22.521C35.4862 22.3709 35.8521 22.2893 36.239 22.2814C36.6391 22.2735 37.0181 22.3393 37.3734 22.4762C37.7314 22.6131 38.0499 22.8184 38.3289 23.0869C38.6211 23.3685 38.8474 23.6817 39.0054 24.0265C39.1659 24.374 39.2501 24.7398 39.2633 25.1241C39.2817 25.5189 39.2212 25.9032 39.0817 26.2691C38.9422 26.6376 38.7369 26.964 38.4631 27.2482C38.171 27.5536 37.8472 27.7826 37.4919 27.9326C37.1366 28.0852 36.7575 28.1563 36.3548 28.1511C35.9705 28.1484 35.6047 28.0747 35.2572 27.93C34.9124 27.7852 34.5966 27.5773 34.3097 27.3009ZM35.0888 26.4349C35.2651 26.6034 35.4573 26.7323 35.6626 26.8192C35.8705 26.9061 36.0916 26.9534 36.3259 26.9613C36.5838 26.9666 36.8233 26.9271 37.0523 26.8376C37.2787 26.7508 37.4735 26.6218 37.6367 26.4507C37.9788 26.0927 38.142 25.6716 38.1183 25.1847C38.0973 24.6977 37.8972 24.2713 37.5156 23.9081C37.1681 23.5738 36.7549 23.4106 36.2732 23.4185C35.7915 23.4264 35.3888 23.6001 35.0598 23.9423C34.715 24.3003 34.5465 24.7214 34.5544 25.2031C34.5623 25.69 34.7387 26.098 35.0888 26.4349Z" fill="#A5CBEF"/>
<path d="M37.0734 20.4706L37.8999 19.7309L40.0766 22.1683C40.4162 22.5499 40.6926 22.7789 40.9058 22.8553C41.119 22.9316 41.3216 22.8816 41.5164 22.7079C41.7112 22.5341 41.7823 22.3367 41.7322 22.1156C41.6796 21.8972 41.4848 21.5945 41.1426 21.2155L38.9659 18.7781L39.7924 18.0385L42.1876 20.7206C42.4534 21.018 42.6377 21.2576 42.7377 21.4339C42.8377 21.6129 42.8983 21.7919 42.922 21.9735C42.9641 22.2841 42.9325 22.5684 42.8272 22.8263C42.7245 23.0843 42.5403 23.329 42.2797 23.5633C42.0191 23.7976 41.7533 23.9502 41.4875 24.0239C41.219 24.0976 40.9321 24.0976 40.6294 24.0213C40.4504 23.9792 40.2846 23.9028 40.1266 23.7923C39.9687 23.6817 39.7476 23.4685 39.466 23.1527L37.0734 20.4706Z" fill="#A5CBEF"/>
<path d="M45.1093 21.0259L44.2354 21.7103L40.7373 17.2515L41.798 16.4197C42.135 16.1565 42.3955 15.9696 42.5772 15.8643C42.7588 15.7591 42.9299 15.688 43.0878 15.6485C43.4326 15.5695 43.7563 15.5827 44.0564 15.6906C44.3565 15.7985 44.617 15.9959 44.8408 16.2828C45.1119 16.6277 45.2461 16.9935 45.2435 17.3831C45.2409 17.7726 45.104 18.128 44.8276 18.4491L47.2992 19.3045L46.2569 20.1205L43.4826 18.9544L45.1093 21.0259ZM43.3115 18.736L43.5037 18.5833C43.8564 18.3069 44.0748 18.0332 44.1564 17.7621C44.238 17.491 44.1854 17.233 43.9932 16.9883C43.8064 16.7514 43.5932 16.6382 43.3536 16.6434C43.1115 16.6513 42.8298 16.7829 42.5061 17.0383L42.1823 17.2936L43.3115 18.736Z" fill="#A5CBEF"/>
<path d="M51.9896 11.4713L50.842 12.1899C50.5893 12.0899 50.3419 12.053 50.0945 12.0794C49.8497 12.1057 49.6049 12.1925 49.3654 12.3426C49.1706 12.4637 49.01 12.6137 48.8837 12.7953C48.7547 12.9769 48.6679 13.1796 48.6205 13.4007C48.5679 13.6349 48.5626 13.8718 48.6047 14.1114C48.6468 14.3509 48.7284 14.5694 48.8547 14.7694C49.1285 15.209 49.5023 15.4906 49.9708 15.6117C50.4393 15.7327 50.8789 15.6669 51.2868 15.409C51.5211 15.2616 51.7053 15.0852 51.8396 14.8799C51.9738 14.6746 52.0449 14.4509 52.058 14.2114L53.2109 13.4902C53.2925 14.1219 53.2241 14.6773 53.0056 15.1563C52.7845 15.6354 52.416 16.0381 51.8975 16.3645C51.5369 16.5908 51.1605 16.7277 50.7683 16.7803C50.3761 16.833 49.976 16.7988 49.5628 16.675C49.218 16.5777 48.8995 16.4145 48.6126 16.1934C48.3257 15.9696 48.0809 15.6933 47.873 15.3642C47.665 15.03 47.5282 14.672 47.4703 14.293C47.4097 13.914 47.4255 13.5218 47.5176 13.1217C47.6071 12.7479 47.7598 12.411 47.9704 12.1162C48.1809 11.8214 48.452 11.5714 48.7784 11.3661C49.3048 11.037 49.8313 10.8818 50.3603 10.9002C50.8867 10.9186 51.4316 11.1081 51.9896 11.4713Z" fill="#A5CBEF"/>
<path d="M54.5243 12.0399L55.5903 14.0824L54.6086 14.5957L51.9843 9.57359L52.9661 9.06032L54.0295 11.0949L55.643 10.25L54.5796 8.21541L55.5614 7.70215L58.1856 12.7242L57.2038 13.2375L56.1378 11.195L54.5243 12.0399Z" fill="#A5CBEF"/>
<path d="M59.0016 12.3663L56.63 7.22047L57.6381 6.75722L60.0097 11.903L59.0016 12.3663Z" fill="#A5CBEF"/>
<path d="M63.4788 10.4317L60.8204 11.5319L58.6541 6.2966L59.6675 5.8781L61.4521 10.1921L63.0945 9.51305L63.4788 10.4317Z" fill="#A5CBEF"/>
<path d="M65.8003 9.59728L63.9763 10.2185L62.1469 4.85683L63.9394 4.24618C64.4264 4.08036 64.8317 3.99613 65.1581 3.99613C65.4845 3.9935 65.8056 4.06983 66.1214 4.21723C66.4584 4.37779 66.7505 4.60941 67.0006 4.91211C67.2506 5.21743 67.448 5.58593 67.5954 6.02022C67.7613 6.50717 67.8192 6.97305 67.7692 7.41788C67.7191 7.86534 67.5612 8.27069 67.3006 8.63655C67.1532 8.84975 66.969 9.0261 66.7479 9.17087C66.5268 9.31564 66.2109 9.45777 65.8003 9.59728ZM65.4213 8.69972C66.003 8.50231 66.382 8.21278 66.561 7.83375C66.74 7.45473 66.7242 6.96252 66.5163 6.35714C66.3267 5.79913 66.0267 5.41747 65.6213 5.21217C65.216 5.00423 64.7422 4.9937 64.2026 5.17795L63.5183 5.41221L64.7212 8.94188L65.4213 8.69972Z" fill="#A5CBEF"/>
<path d="M70.1354 8.25223L69.0642 8.5365L67.6191 3.05906L68.922 2.71425C69.3353 2.6037 69.6485 2.5379 69.8564 2.51421C70.067 2.49052 70.2513 2.49052 70.4118 2.51948C70.7619 2.58265 71.0514 2.72478 71.2831 2.94061C71.5147 3.15908 71.6779 3.44335 71.77 3.79342C71.8832 4.21719 71.8595 4.60675 71.7042 4.96471C71.5489 5.32005 71.2804 5.59116 70.9014 5.77804L72.8334 7.54156L71.5542 7.87847L69.4669 5.7096L70.1354 8.25223ZM69.3932 5.43586L69.6301 5.37269C70.0644 5.25951 70.3723 5.09369 70.5566 4.87785C70.7408 4.66202 70.7908 4.40407 70.7119 4.10138C70.6355 3.80921 70.4855 3.6197 70.2592 3.53284C70.0354 3.44335 69.7222 3.45388 69.3248 3.55916L68.9247 3.66445L69.3932 5.43586Z" fill="#A5CBEF"/>
<path d="M76.3762 6.83089L73.3782 7.43102L72.2648 1.87461L75.2628 1.27449L75.4576 2.25101L73.5335 2.6353L73.7862 3.90135L75.7102 3.51706L75.9024 4.47778L73.9783 4.86207L74.2547 6.23604L76.1788 5.85174L76.3762 6.83089Z" fill="#A5CBEF"/>
<path d="M78.2766 6.52822L77.1974 6.67036L76.4552 1.05342L77.4975 0.916545L80.2954 4.1988L79.8216 0.611222L80.8982 0.469086L81.6404 6.08603L80.6218 6.22027L77.7923 2.83273L78.2766 6.52822Z" fill="#A5CBEF"/>
<path d="M90.2764 2.71953C90.2764 2.74059 90.2791 2.77218 90.2817 2.81429C90.2843 2.8564 90.2869 2.88799 90.2869 2.90905C90.2922 3.15383 90.2738 3.3802 90.2317 3.58813C90.1922 3.7987 90.1264 3.99611 90.0395 4.18036C89.7816 4.71731 89.4236 5.13319 88.9683 5.43062C88.5129 5.72805 87.9944 5.88071 87.4127 5.89124C86.9836 5.89913 86.5862 5.8228 86.2203 5.66751C85.8545 5.50958 85.5228 5.27269 85.228 4.95683C84.9832 4.69099 84.7937 4.3883 84.6595 4.04875C84.5252 3.70921 84.4568 3.34598 84.4489 2.96169C84.441 2.56687 84.5121 2.19311 84.6595 1.83514C84.8069 1.47717 85.0253 1.15342 85.3149 0.855993C85.5913 0.574356 85.8992 0.361153 86.2414 0.221651C86.5836 0.0821487 86.9626 0.00581825 87.3811 0.000554011C87.9917 -0.00997446 88.5208 0.129529 88.9683 0.421695C89.4157 0.711228 89.7658 1.14289 90.0185 1.71143L88.6735 1.73512C88.5076 1.53245 88.3102 1.38242 88.0891 1.28503C87.8654 1.18764 87.6153 1.14026 87.3416 1.14553C86.8573 1.15342 86.4493 1.33504 86.1177 1.69301C85.786 2.04834 85.6255 2.47738 85.6334 2.97748C85.6413 3.48548 85.8202 3.91188 86.1677 4.25406C86.5151 4.59623 86.9363 4.76469 87.4364 4.75679C87.7812 4.75153 88.0918 4.65151 88.3708 4.45936C88.6498 4.26722 88.8524 4.0119 88.9814 3.69342L86.7546 3.73027L86.7388 2.78007L90.2764 2.71953Z" fill="#A5CBEF"/>
<path d="M93.9877 5.95705L90.9344 5.79385L91.2398 0.134796L94.2957 0.300621L94.243 1.29556L92.2847 1.19028L92.2163 2.48002L94.1746 2.5853L94.1219 3.56445L92.1636 3.45916L92.0873 4.85682L94.0456 4.96211L93.9877 5.95705Z" fill="#A5CBEF"/>
<path d="M98.2333 0.692792L98.128 1.68247L97.0673 1.57192L96.5777 6.21498L95.4775 6.09916L95.9671 1.4561L94.909 1.34556L95.0142 0.355881L98.2333 0.692792Z" fill="#A5CBEF"/>
<path d="M104.15 1.68512L103.969 2.66427L102.921 2.4695L102.063 7.05991L100.976 6.85724L101.834 2.26682L100.786 2.07204L100.968 1.0929L104.15 1.68512Z" fill="#A5CBEF"/>
<path d="M105.174 5.37007L104.619 7.60474L103.542 7.33626L104.908 1.83777L105.985 2.10625L105.432 4.33565L107.198 4.77521L107.751 2.54581L108.828 2.81429L107.461 8.31278L106.385 8.0443L106.94 5.80964L105.174 5.37007Z" fill="#A5CBEF"/>
<path d="M111.197 9.48407L108.28 8.5602L109.991 3.15909L112.907 4.08296L112.607 5.03316L110.739 4.44093L110.349 5.67276L112.218 6.26499L111.92 7.19939L110.052 6.60717L109.628 7.94165L111.497 8.53387L111.197 9.48407Z" fill="#A5CBEF"/>
<path d="M116.953 11.7424L114.131 10.5606L116.319 5.33322L119.14 6.51504L118.756 7.43366L116.948 6.6756L116.45 7.86795L118.258 8.626L117.879 9.53145L116.071 8.7734L115.532 10.0658L117.34 10.8238L116.953 11.7424Z" fill="#A5CBEF"/>
<path d="M119.448 12.9295L117.724 12.0688L120.256 6.99936L121.951 7.8469C122.412 8.0759 122.757 8.30753 122.986 8.53652C123.215 8.76815 123.388 9.04715 123.504 9.3788C123.628 9.7315 123.667 10.1026 123.625 10.4922C123.583 10.8844 123.46 11.2845 123.254 11.6951C123.025 12.1557 122.733 12.5242 122.38 12.8006C122.028 13.0769 121.628 13.2533 121.183 13.3243C120.93 13.3691 120.672 13.3612 120.414 13.3059C120.159 13.248 119.835 13.1217 119.448 12.9295ZM119.819 12.0267C120.369 12.3004 120.841 12.3689 121.235 12.2294C121.63 12.0899 121.97 11.7345 122.257 11.1607C122.52 10.6343 122.583 10.1526 122.444 9.71834C122.304 9.28404 121.98 8.93923 121.47 8.68392L120.822 8.36016L119.156 11.6951L119.819 12.0267Z" fill="#A5CBEF"/>
<path d="M125.384 9.62622L126.339 10.1895L124.676 13.0032C124.415 13.4428 124.281 13.7771 124.273 14.0008C124.265 14.2272 124.373 14.4061 124.599 14.5404C124.826 14.6746 125.034 14.6825 125.228 14.5667C125.423 14.4509 125.649 14.1719 125.91 13.7323L127.574 10.9186L128.529 11.4819L126.7 14.5772C126.497 14.922 126.326 15.1668 126.184 15.3169C126.044 15.4669 125.892 15.5801 125.726 15.6564C125.441 15.7906 125.162 15.8459 124.883 15.8249C124.607 15.8038 124.318 15.7038 124.015 15.5274C123.712 15.3484 123.486 15.1431 123.336 14.9115C123.183 14.6799 123.099 14.4061 123.078 14.0929C123.065 13.9113 123.086 13.7271 123.144 13.5454C123.202 13.3612 123.338 13.0875 123.554 12.7216L125.384 9.62622Z" fill="#A5CBEF"/>
<path d="M133.017 16.5724L131.906 15.7985C131.898 15.5274 131.835 15.2853 131.716 15.0694C131.598 14.8536 131.422 14.6641 131.19 14.5035C131.003 14.3719 130.8 14.2851 130.582 14.2377C130.366 14.1903 130.145 14.1903 129.921 14.2324C129.684 14.2772 129.466 14.364 129.261 14.4956C129.055 14.6273 128.887 14.7904 128.753 14.9826C128.455 15.409 128.345 15.8617 128.416 16.3408C128.489 16.8198 128.724 17.1962 129.119 17.4726C129.348 17.6305 129.582 17.7305 129.821 17.7726C130.063 17.8147 130.295 17.7937 130.521 17.7095L131.635 18.4859C131.087 18.8097 130.548 18.965 130.021 18.9518C129.492 18.9387 128.979 18.757 128.476 18.407C128.126 18.1648 127.853 17.8727 127.65 17.5331C127.45 17.1936 127.323 16.8093 127.273 16.3829C127.229 16.0249 127.252 15.6722 127.345 15.3195C127.437 14.9694 127.595 14.6325 127.818 14.314C128.045 13.9903 128.318 13.7271 128.645 13.5218C128.971 13.3165 129.337 13.1796 129.74 13.1059C130.119 13.0427 130.487 13.048 130.843 13.1269C131.198 13.2059 131.535 13.3559 131.851 13.5744C132.359 13.9297 132.709 14.3535 132.901 14.8457C133.096 15.3406 133.133 15.917 133.017 16.5724Z" fill="#A5CBEF"/>
<path d="M132.559 19.8072L131.469 20.4495L130.579 19.723L135.865 16.7198L136.607 17.3252L134.707 23.0869L133.788 22.3367L134.191 21.1338L132.559 19.8072ZM134.567 20.0889L135.201 18.2517L133.517 19.2334L134.567 20.0889Z" fill="#A5CBEF"/>
<path d="M140.455 20.7127L139.787 21.4497L138.997 20.7338L135.859 24.1924L135.041 23.4501L138.178 19.9915L137.389 19.2756L138.057 18.5386L140.455 20.7127Z" fill="#A5CBEF"/>
<path d="M136.986 25.2557L140.947 21.2049L141.74 21.9814L137.778 26.0322L136.986 25.2557Z" fill="#A5CBEF"/>
<path d="M140.366 24.5135C140.595 24.3029 140.842 24.1371 141.103 24.0134C141.363 23.8897 141.637 23.8054 141.926 23.7633C142.416 23.6975 142.885 23.7449 143.335 23.9081C143.782 24.0713 144.177 24.3371 144.514 24.7083C144.766 24.9873 144.956 25.3031 145.085 25.6584C145.211 26.0138 145.267 26.3849 145.251 26.7718C145.232 27.1719 145.143 27.5457 144.98 27.8905C144.819 28.2379 144.593 28.5406 144.306 28.8038C144.006 29.0776 143.679 29.2802 143.321 29.4171C142.966 29.554 142.595 29.6145 142.211 29.6014C141.816 29.5935 141.437 29.5092 141.079 29.3434C140.721 29.1802 140.41 28.9512 140.145 28.6591C139.86 28.3458 139.652 28.0089 139.526 27.6431C139.397 27.2798 139.352 26.8955 139.384 26.4928C139.413 26.1085 139.51 25.7479 139.676 25.4137C139.842 25.082 140.071 24.782 140.366 24.5135ZM141.176 25.3479C140.995 25.5111 140.855 25.6953 140.755 25.8953C140.653 26.0954 140.592 26.3138 140.571 26.5481C140.547 26.8034 140.571 27.0482 140.645 27.2798C140.718 27.5115 140.834 27.7141 140.992 27.8905C141.326 28.2564 141.737 28.4459 142.224 28.4564C142.711 28.4669 143.15 28.2958 143.54 27.9405C143.898 27.6167 144.087 27.214 144.111 26.7324C144.135 26.2533 143.987 25.8374 143.669 25.4847C143.335 25.1189 142.927 24.9215 142.442 24.8951C141.955 24.8714 141.534 25.0215 141.176 25.3479Z" fill="#A5CBEF"/>
<path d="M143.195 32.0598L142.529 31.1964L147.017 27.7378L147.659 28.5696L146.222 32.6336L149.088 30.4252L149.752 31.2859L145.264 34.7445L144.638 33.9312L146.148 29.7856L143.195 32.0598Z" fill="#A5CBEF"/>
<path d="M153.324 36.716L152.481 37.2477L151.913 36.3449L147.962 38.8348L147.372 37.9004L151.323 35.4105L150.755 34.5076L151.597 33.976L153.324 36.716Z" fill="#A5CBEF"/>
<path d="M151.315 39.9667L149.299 41.08L148.765 40.1088L153.726 37.374L154.261 38.3453L152.25 39.4534L153.129 41.0485L155.14 39.9403L155.674 40.9116L150.712 43.6464L150.176 42.6751L152.194 41.5617L151.315 39.9667Z" fill="#A5CBEF"/>
<path d="M152.392 47.1813L151.086 44.4149L156.211 41.9987L157.517 44.765L156.616 45.1888L155.779 43.4147L154.611 43.9649L155.448 45.7389L154.561 46.1574L153.724 44.3834L152.458 44.9808L153.295 46.7549L152.392 47.1813Z" fill="#A5CBEF"/>
<path d="M155.384 49.079L153.495 49.845L153.079 48.8158L154.969 48.0499L157.722 45.1835L158.18 46.3127L156.287 48.1367L158.914 48.1236L159.369 49.2449L155.384 49.079Z" fill="#A5CBEF"/>
<path d="M155.461 55.5304L154.919 53.6826L160.357 52.0902L160.888 53.909C161.033 54.4012 161.099 54.8118 161.086 55.1355C161.073 55.4619 160.986 55.7778 160.822 56.0884C160.649 56.4174 160.404 56.699 160.091 56.9359C159.775 57.1728 159.398 57.3544 158.956 57.4834C158.464 57.6282 157.996 57.665 157.551 57.594C157.106 57.5229 156.708 57.3492 156.353 57.0728C156.148 56.9175 155.979 56.7254 155.843 56.4964C155.711 56.2674 155.585 55.9462 155.461 55.5304ZM156.377 55.1908C156.551 55.7804 156.822 56.1726 157.193 56.3674C157.564 56.5622 158.056 56.5674 158.672 56.3884C159.238 56.2226 159.633 55.941 159.856 55.5435C160.08 55.1461 160.112 54.6749 159.951 54.1275L159.749 53.4326L156.172 54.4802L156.377 55.1908Z" fill="#A5CBEF"/>
<path d="M157.04 61.8264L156.377 58.8416L161.91 57.615L162.573 60.6025L161.599 60.8183L161.175 58.9048L159.914 59.1838L160.338 61.0973L159.38 61.3105L158.956 59.397L157.588 59.6997L158.011 61.6132L157.04 61.8264Z" fill="#A5CBEF"/>
<path d="M158.88 62.0475L159.048 63.0451L158.967 63.0582C158.733 63.0977 158.554 63.1898 158.43 63.3346C158.309 63.482 158.264 63.6557 158.298 63.861C158.335 64.0821 158.43 64.2453 158.582 64.3506C158.735 64.4559 158.925 64.4927 159.151 64.4532C159.512 64.3927 159.727 64.0926 159.799 63.5504C159.806 63.4794 159.817 63.4241 159.822 63.3846C159.885 62.9266 160.028 62.5739 160.241 62.3212C160.457 62.0712 160.754 61.9132 161.136 61.8501C161.659 61.7632 162.107 61.8395 162.47 62.0791C162.836 62.3186 163.057 62.6792 163.139 63.1609C163.212 63.6136 163.131 63.9979 162.891 64.3137C162.652 64.6296 162.281 64.8428 161.778 64.9586L161.615 63.9689L161.659 63.961C161.838 63.9321 161.975 63.8531 162.067 63.7294C162.16 63.6031 162.191 63.453 162.162 63.2793C162.133 63.1003 162.054 62.9687 161.923 62.8819C161.794 62.7976 161.63 62.7713 161.436 62.8029C161.354 62.8161 161.283 62.8398 161.225 62.8713C161.165 62.9029 161.115 62.9477 161.07 63.0003C160.972 63.124 160.901 63.3662 160.862 63.7294C160.846 63.89 160.83 64.0137 160.817 64.1005C160.749 64.5059 160.609 64.8191 160.396 65.0428C160.183 65.2666 159.888 65.4087 159.509 65.4719C158.933 65.5666 158.446 65.4824 158.043 65.2192C157.64 64.956 157.395 64.5612 157.309 64.0295C157.227 63.5294 157.33 63.1003 157.617 62.7371C157.903 62.3791 158.325 62.1475 158.88 62.0475Z" fill="#A5CBEF"/>
<path d="M158.117 69.4122L157.788 66.3721L163.42 65.7614L163.749 68.8015L162.76 68.9094L162.549 66.959L161.265 67.0985L161.475 69.0489L160.501 69.1542L160.291 67.2038L158.898 67.3538L159.109 69.3042L158.117 69.4122Z" fill="#A5CBEF"/>
<path d="M158.243 71.3573L158.19 70.2492L163.849 69.9728L163.915 71.3178C163.936 71.7442 163.936 72.0653 163.918 72.2733C163.897 72.4838 163.857 72.6628 163.797 72.8155C163.662 73.1445 163.465 73.3998 163.202 73.5814C162.941 73.763 162.628 73.8631 162.265 73.8815C161.828 73.9025 161.449 73.7999 161.133 73.5735C160.817 73.3472 160.607 73.0287 160.504 72.6181L158.377 74.1394L158.314 72.8181L160.87 71.2283L158.243 71.3573ZM161.151 71.2152L161.165 71.4599C161.186 71.9074 161.283 72.2443 161.457 72.468C161.63 72.6918 161.873 72.7971 162.183 72.7813C162.483 72.7655 162.699 72.6576 162.833 72.4575C162.968 72.2548 163.023 71.9495 163.002 71.5389L162.981 71.1257L161.151 71.2152Z" fill="#A5CBEF"/>
<path d="M158.348 76.8716L158.361 76.082L164.06 74.1421L164.042 75.3292L160.243 76.5057L164.002 77.8086L163.984 78.9878L158.348 76.8716Z" fill="#A5CBEF"/>
<path d="M158.061 82.1806L158.285 79.1299L163.936 79.5432L163.712 82.5938L162.72 82.5201L162.862 80.5645L161.573 80.4697L161.43 82.4254L160.451 82.3543L160.593 80.3986L159.196 80.296L159.054 82.2516L158.061 82.1806Z" fill="#A5CBEF"/>
</svg>
