<svg width="19" height="22" viewBox="0 0 19 22" fill="none" xmlns="http://www.w3.org/2000/svg">
<path d="M9.21629 5.50136C8.49115 5.50136 7.7823 5.71639 7.17937 6.11925C6.57644 6.52211 6.10652 7.09472 5.82902 7.76466C5.55152 8.4346 5.47892 9.17178 5.62038 9.88298C5.76185 10.5942 6.11104 11.2475 6.62379 11.7602C7.13653 12.273 7.78981 12.6221 8.50102 12.7636C9.21222 12.9051 9.9494 12.8325 10.6193 12.555C11.2893 12.2775 11.8619 11.8076 12.2647 11.2046C12.6676 10.6017 12.8826 9.89285 12.8826 9.16771C12.8826 8.19533 12.4964 7.26278 11.8088 6.57521C11.1212 5.88763 10.1887 5.50136 9.21629 5.50136ZM9.21629 11.0009C8.85372 11.0009 8.49929 10.8934 8.19783 10.6919C7.89636 10.4905 7.6614 10.2042 7.52265 9.86924C7.3839 9.53427 7.3476 9.16568 7.41833 8.81007C7.48907 8.45447 7.66366 8.12783 7.92004 7.87146C8.17641 7.61509 8.50305 7.44049 8.85865 7.36976C9.21425 7.29902 9.58284 7.33533 9.91781 7.47408C10.2528 7.61282 10.5391 7.84779 10.7405 8.14925C10.9419 8.45072 11.0495 8.80514 11.0495 9.16771C11.0495 9.6539 10.8563 10.1202 10.5125 10.464C10.1687 10.8077 9.70247 11.0009 9.21629 11.0009Z" fill="#032A7C"/>
<path d="M9.21629 21.9999C8.44447 22.0039 7.68294 21.8229 6.99545 21.472C6.30797 21.1212 5.71455 20.6108 5.26488 19.9834C1.77176 15.1649 0 11.5426 0 9.21629C0 6.77198 0.970999 4.42778 2.69939 2.69939C4.42778 0.970999 6.77198 0 9.21629 0C11.6606 0 14.0048 0.970999 15.7332 2.69939C17.4616 4.42778 18.4326 6.77198 18.4326 9.21629C18.4326 11.5426 16.6608 15.1649 13.1677 19.9834C12.718 20.6108 12.1246 21.1212 11.4371 21.472C10.7496 21.8229 9.9881 22.0039 9.21629 21.9999ZM9.21629 2.00091C7.30283 2.00309 5.46838 2.76418 4.11536 4.11719C2.76234 5.47021 2.00126 7.30467 1.99908 9.21812C1.99908 11.0605 3.73418 14.4674 6.88357 18.8111C7.15093 19.1794 7.50169 19.4791 7.90714 19.6858C8.31258 19.8925 8.7612 20.0002 9.21629 20.0002C9.67137 20.0002 10.12 19.8925 10.5254 19.6858C10.9309 19.4791 11.2816 19.1794 11.549 18.8111C14.6984 14.4674 16.4335 11.0605 16.4335 9.21812C16.4313 7.30467 15.6702 5.47021 14.3172 4.11719C12.9642 2.76418 11.1297 2.00309 9.21629 2.00091Z" fill="#032A7C"/>
</svg>
