<svg width="13" height="12" viewBox="0 0 13 12" fill="none" xmlns="http://www.w3.org/2000/svg">
<path d="M9.67927 7.33324C9.30124 7.33355 8.92897 7.42584 8.59458 7.60214C8.26018 7.77844 7.9737 8.03346 7.75987 8.34519L4.50554 6.87577C4.73668 6.31761 4.73758 5.69067 4.50804 5.13186L7.75787 3.65493C8.07479 4.11329 8.54549 4.44287 9.0846 4.58391C9.6237 4.72494 10.1955 4.66808 10.6963 4.42364C11.197 4.1792 11.5936 3.76338 11.8141 3.25159C12.0345 2.7398 12.0642 2.16595 11.8978 1.63413C11.7314 1.1023 11.3799 0.647738 10.9071 0.352883C10.4342 0.0580277 9.87135 -0.057587 9.32056 0.0270104C8.76977 0.111608 8.26754 0.390814 7.90498 0.813983C7.54241 1.23715 7.34352 1.77625 7.34439 2.3335C7.34651 2.4654 7.35989 2.59687 7.38439 2.72648L3.92957 4.2964C3.59775 3.98553 3.18236 3.77835 2.73442 3.70031C2.28647 3.62228 1.82549 3.67679 1.4081 3.85715C0.990715 4.03751 0.635101 4.33587 0.38495 4.71556C0.134798 5.09525 0.00100466 5.53975 5.63579e-06 5.99444C-0.000993387 6.44912 0.130846 6.8942 0.379326 7.27499C0.627807 7.65578 0.982107 7.95569 1.3987 8.13789C1.81529 8.32008 2.27603 8.37662 2.72431 8.30055C3.17259 8.22449 3.58889 8.01914 3.92207 7.70972L7.38589 9.27364C7.36183 9.40314 7.34862 9.53442 7.34639 9.66612C7.34629 10.1277 7.48307 10.5789 7.73943 10.9627C7.99578 11.3465 8.3602 11.6456 8.78659 11.8223C9.21298 11.999 9.68219 12.0452 10.1349 11.9552C10.5875 11.8652 11.0034 11.6429 11.3297 11.3166C11.6561 10.9902 11.8783 10.5744 11.9683 10.1217C12.0584 9.66904 12.0121 9.19983 11.8354 8.77344C11.6588 8.34705 11.3596 7.98264 10.9758 7.72628C10.592 7.46992 10.1408 7.33314 9.67927 7.33324ZM9.67927 1.00007C9.94302 0.999973 10.2009 1.07809 10.4202 1.22455C10.6396 1.37101 10.8106 1.57923 10.9116 1.82287C11.0126 2.06652 11.039 2.33464 10.9876 2.59334C10.9362 2.85203 10.8093 3.08967 10.6228 3.2762C10.4364 3.46274 10.1988 3.58978 9.94009 3.64127C9.68142 3.69277 9.41328 3.66639 9.1696 3.56548C8.92592 3.46457 8.71764 3.29366 8.5711 3.07437C8.42455 2.85508 8.34634 2.59725 8.34634 2.3335C8.3466 1.98002 8.4871 1.64109 8.73701 1.39109C8.98691 1.1411 9.32579 1.00047 9.67927 1.00007ZM2.34665 7.33324C2.0829 7.33334 1.82505 7.25522 1.6057 7.10876C1.38635 6.9623 1.21537 6.75408 1.11436 6.51044C1.01336 6.2668 0.986886 5.99867 1.03828 5.73998C1.08967 5.48129 1.21663 5.24364 1.4031 5.05711C1.58956 4.87058 1.82715 4.74353 2.08583 4.69204C2.3445 4.64055 2.61263 4.66692 2.85632 4.76783C3.1 4.86874 3.30828 5.03965 3.45482 5.25894C3.60136 5.47824 3.67958 5.73606 3.67958 5.99981C3.67918 6.35325 3.53864 6.69211 3.28877 6.94207C3.03889 7.19204 2.70009 7.33271 2.34665 7.33324ZM9.67927 10.9996C9.41554 10.9996 9.15773 10.9213 8.93845 10.7748C8.71917 10.6283 8.54826 10.4201 8.44734 10.1764C8.34641 9.93275 8.32001 9.66464 8.37146 9.40598C8.42291 9.14732 8.54991 8.90973 8.73639 8.72324C8.92287 8.53676 9.16047 8.40976 9.41913 8.35831C9.67779 8.30686 9.9459 8.33327 10.1895 8.43419C10.4332 8.53512 10.6415 8.70602 10.788 8.92531C10.9345 9.14459 11.0127 9.40239 11.0127 9.66612C11.0124 10.0197 10.8719 10.3587 10.6219 10.6087C10.3718 10.8587 10.0328 10.9993 9.67927 10.9996Z" fill="#04122D"/>
</svg>
