<svg width="16" height="12" viewBox="0 0 16 12" fill="none" xmlns="http://www.w3.org/2000/svg">
<path d="M14.9441 4.34286C13.9483 2.72103 11.6831 0 7.70751 0C3.73191 0 1.46674 2.72103 0.470912 4.34286C0.163065 4.84078 0 5.4146 0 6C0 6.5854 0.163065 7.15923 0.470912 7.65714C1.46674 9.27897 3.73191 12 7.70751 12C11.6831 12 13.9483 9.27897 14.9441 7.65714C15.252 7.15923 15.415 6.5854 15.415 6C15.415 5.4146 15.252 4.84078 14.9441 4.34286ZM13.8494 6.98491C12.9942 8.3756 11.0584 10.7159 7.70751 10.7159C4.35663 10.7159 2.42083 8.3756 1.56562 6.98491C1.38272 6.68895 1.28584 6.34791 1.28584 6C1.28584 5.65209 1.38272 5.31105 1.56562 5.01509C2.42083 3.6244 4.35663 1.28411 7.70751 1.28411C11.0584 1.28411 12.9942 3.62183 13.8494 5.01509C14.0323 5.31105 14.1292 5.65209 14.1292 6C14.1292 6.34791 14.0323 6.68895 13.8494 6.98491Z" fill="#04122D"/>
<path d="M7.70751 2.78973C7.07258 2.78973 6.4519 2.97801 5.92398 3.33076C5.39605 3.68351 4.98458 4.18488 4.7416 4.77148C4.49863 5.35808 4.43505 6.00356 4.55892 6.62629C4.68279 7.24903 4.98854 7.82104 5.4375 8.27001C5.88647 8.71897 6.45848 9.02472 7.08122 9.14859C7.70395 9.27246 8.34943 9.20889 8.93603 8.96591C9.52263 8.72293 10.024 8.31146 10.3768 7.78353C10.7295 7.25561 10.9178 6.63493 10.9178 6C10.9168 5.1489 10.5782 4.33294 9.97639 3.73112C9.37457 3.1293 8.55861 2.79075 7.70751 2.78973ZM7.70751 7.92617C7.32655 7.92617 6.95415 7.8132 6.63739 7.60155C6.32063 7.3899 6.07375 7.08907 5.92797 6.73711C5.78218 6.38515 5.74403 5.99786 5.81836 5.62422C5.89268 5.25059 6.07613 4.90738 6.34551 4.638C6.61488 4.36862 6.95809 4.18517 7.33173 4.11085C7.70537 4.03653 8.09266 4.07467 8.44462 4.22046C8.79658 4.36624 9.09741 4.61313 9.30906 4.92988C9.52071 5.24664 9.63367 5.61904 9.63367 6C9.63367 6.51085 9.43074 7.00078 9.06951 7.362C8.70829 7.72323 8.21836 7.92617 7.70751 7.92617Z" fill="#04122D"/>
</svg>
