<svg width="18" height="18" viewBox="0 0 18 18" fill="none" xmlns="http://www.w3.org/2000/svg">
<path d="M4.14831 14.9141H8.14001L10.7794 17.5501C10.9212 17.6927 11.0899 17.8058 11.2756 17.883C11.4614 17.9603 11.6605 18 11.8617 18C11.994 17.9998 12.1258 17.9829 12.254 17.9498C12.5129 17.8844 12.75 17.752 12.9415 17.5658C13.133 17.3797 13.272 17.1464 13.3445 16.8894L18 1.05962L4.14831 14.9141Z" fill="black"/>
<path d="M3.07275 13.8643L16.9372 0L1.11591 4.66517C0.858295 4.73841 0.624315 4.87773 0.437179 5.0693C0.250043 5.26086 0.116256 5.49802 0.0490888 5.75724C-0.0180779 6.01646 -0.0162892 6.28874 0.0542774 6.54706C0.124844 6.80537 0.261736 7.04075 0.451372 7.22985L3.07275 9.84852V13.8643Z" fill="black"/>
</svg>
