<svg width="18" height="17" viewBox="0 0 18 17" fill="none" xmlns="http://www.w3.org/2000/svg">
<path d="M17.6682 15.9998L13.2385 11.5701C14.3892 10.1628 14.9549 8.36708 14.8187 6.55437C14.6825 4.74166 13.8548 3.05065 12.5068 1.8311C11.1588 0.611552 9.39358 -0.043221 7.57633 0.00221597C5.75909 0.0476529 4.02882 0.789823 2.74343 2.07521C1.45804 3.36061 0.715866 5.09087 0.670429 6.90812C0.624992 8.72537 1.27976 10.4906 2.49931 11.8386C3.71886 13.1866 5.40988 14.0143 7.22258 14.1505C9.03529 14.2867 10.831 13.721 12.2383 12.5703L16.668 17L17.6682 15.9998ZM7.76475 12.7557C6.64549 12.7557 5.55135 12.4238 4.62072 11.8019C3.69008 11.1801 2.96474 10.2963 2.53641 9.26219C2.10808 8.22812 1.99602 7.09026 2.21437 5.9925C2.43273 4.89474 2.97171 3.88638 3.76315 3.09494C4.55459 2.3035 5.56295 1.76452 6.66072 1.54616C7.75848 1.3278 8.89634 1.43987 9.93041 1.8682C10.9645 2.29652 11.8483 3.02187 12.4701 3.9525C13.092 4.88314 13.4239 5.97727 13.4239 7.09654C13.4222 8.59692 12.8254 10.0354 11.7645 11.0963C10.7036 12.1572 9.26513 12.754 7.76475 12.7557Z" fill="black"/>
</svg>
