<svg width="15" height="30" viewBox="0 0 15 30" fill="none" xmlns="http://www.w3.org/2000/svg">
<path d="M1.25708 30C1.42156 30.0009 1.58461 29.9694 1.73688 29.9072C1.88915 29.845 2.02765 29.7534 2.14443 29.6375L12.3552 19.4268C12.9371 18.8463 13.3988 18.1567 13.7139 17.3976C14.0289 16.6384 14.191 15.8245 14.191 15.0025C14.191 14.1806 14.0289 13.3667 13.7139 12.6075C13.3988 11.8484 12.9371 11.1588 12.3552 10.5783L2.14443 0.367552C2.0279 0.251023 1.88956 0.158588 1.73731 0.0955236C1.58506 0.0324589 1.42188 1.22782e-09 1.25708 0C1.09229 -1.22782e-09 0.929104 0.0324589 0.776853 0.0955236C0.624601 0.158588 0.486263 0.251023 0.369734 0.367552C0.253206 0.48408 0.160769 0.622419 0.0977048 0.77467C0.0346402 0.926922 0.00218176 1.0901 0.00218176 1.2549C0.00218176 1.4197 0.0346402 1.58288 0.0977048 1.73513C0.160769 1.88738 0.253206 2.02572 0.369734 2.14225L10.5805 12.353C11.2826 13.056 11.677 14.009 11.677 15.0025C11.677 15.9961 11.2826 16.9491 10.5805 17.6521L0.369734 27.8628C0.252594 27.979 0.159615 28.1173 0.0961646 28.2696C0.0327146 28.4219 4.88719e-05 28.5852 4.88719e-05 28.7502C4.88719e-05 28.9152 0.0327146 29.0785 0.0961646 29.2308C0.159615 29.3831 0.252594 29.5214 0.369734 29.6375C0.486514 29.7534 0.625008 29.845 0.777279 29.9072C0.92955 29.9694 1.0926 30.0009 1.25708 30Z" fill="black"/>
</svg>
