<svg width="15" height="30" viewBox="0 0 15 30" fill="none" xmlns="http://www.w3.org/2000/svg">
<path d="M12.934 30C12.7695 30.0009 12.6064 29.9694 12.4542 29.9072C12.3019 29.845 12.1634 29.7534 12.0466 29.6375L1.83586 19.4268C1.25392 18.8463 0.792211 18.1567 0.477184 17.3976C0.162157 16.6384 0 15.8245 0 15.0025C0 14.1806 0.162157 13.3667 0.477184 12.6075C0.792211 11.8484 1.25392 11.1588 1.83586 10.5783L12.0466 0.367552C12.1631 0.251023 12.3015 0.158588 12.4537 0.0955236C12.606 0.0324589 12.7692 1.22782e-09 12.934 0C13.0988 -1.22782e-09 13.2619 0.0324589 13.4142 0.0955236C13.5664 0.158588 13.7048 0.251023 13.8213 0.367552C13.9378 0.48408 14.0303 0.622419 14.0933 0.77467C14.1564 0.926922 14.1889 1.0901 14.1889 1.2549C14.1889 1.4197 14.1564 1.58288 14.0933 1.73513C14.0303 1.88738 13.9378 2.02572 13.8213 2.14225L3.61055 12.353C2.90842 13.056 2.51404 14.009 2.51404 15.0025C2.51404 15.9961 2.90842 16.9491 3.61055 17.6521L13.8213 27.8628C13.9384 27.979 14.0314 28.1173 14.0949 28.2696C14.1583 28.4219 14.191 28.5852 14.191 28.7502C14.191 28.9152 14.1583 29.0785 14.0949 29.2308C14.0314 29.3831 13.9384 29.5214 13.8213 29.6375C13.7045 29.7534 13.566 29.845 13.4138 29.9072C13.2615 29.9694 13.0984 30.0009 12.934 30Z" fill="black"/>
</svg>
