<svg width="25" height="25" viewBox="0 0 25 25" fill="none" xmlns="http://www.w3.org/2000/svg">
<g clip-path="url(#clip0_28_11970)">
<path d="M25 12.5C25 5.59644 19.4036 0 12.5 0C5.59644 0 0 5.59644 0 12.5C0 19.4036 5.59644 25 12.5 25C19.4036 25 25 19.4036 25 12.5Z" fill="url(#paint0_linear_28_11970)"/>
<path opacity="0.1" d="M21.9079 4.2764C20.0855 7.6218 17.5082 11.0725 14.2878 14.2929C11.0674 17.5132 7.61676 20.0856 4.2763 21.908C4.06687 21.726 3.86347 21.5363 3.6661 21.3389C2.4731 20.1857 1.52162 18.8066 0.867147 17.2819C0.21267 15.7572 -0.131707 14.1174 -0.145905 12.4583C-0.160102 10.7991 0.156164 9.15371 0.784453 7.61804C1.41274 6.08236 2.34048 4.68714 3.51357 3.51372C4.68666 2.3403 6.08162 1.41217 7.61712 0.783455C9.15263 0.154738 10.7979 -0.161988 12.4571 -0.148253C14.1163 -0.134519 15.7561 0.209401 17.281 0.863452C18.8059 1.5175 20.1853 2.4686 21.3388 3.66127C21.5362 3.85864 21.7259 4.06368 21.9079 4.2764Z" fill="white"/>
<path d="M15.5395 6H9.61842C8.65876 6 7.7384 6.38123 7.05981 7.05981C6.38123 7.7384 6 8.65876 6 9.61842V15.5395C6 16.4991 6.38123 17.4195 7.05981 18.0981C7.7384 18.7767 8.65876 19.1579 9.61842 19.1579H15.5395C16.4991 19.1579 17.4195 18.7767 18.0981 18.0981C18.7767 17.4195 19.1579 16.4991 19.1579 15.5395V9.61842C19.1579 8.65876 18.7767 7.7384 18.0981 7.05981C17.4195 6.38123 16.4991 6 15.5395 6ZM18.0066 15.0197C18.0066 15.8119 17.6919 16.5716 17.1318 17.1318C16.5716 17.6919 15.8119 18.0066 15.0197 18.0066H10.1382C9.346 18.0066 8.58628 17.6919 8.02614 17.1318C7.466 16.5716 7.15132 15.8119 7.15132 15.0197V10.1382C7.15132 9.346 7.466 8.58628 8.02614 8.02614C8.58628 7.466 9.346 7.15132 10.1382 7.15132H15.0197C15.8119 7.15132 16.5716 7.466 17.1318 8.02614C17.6919 8.58628 18.0066 9.346 18.0066 10.1382V15.0197Z" fill="white"/>
<path d="M14.8996 10.125L14.8684 10.0938L14.842 10.0674C14.2202 9.44772 13.3779 9.09993 12.4999 9.10034C12.0566 9.10336 11.6182 9.19369 11.2098 9.3662C10.8013 9.5387 10.4309 9.78998 10.1196 10.1057C9.80832 10.4214 9.56229 10.7954 9.39558 11.2062C9.22886 11.617 9.14473 12.0567 9.14798 12.5C9.14731 13.3998 9.50198 14.2634 10.1348 14.903C10.4448 15.2167 10.8142 15.4656 11.2214 15.635C11.6286 15.8045 12.0655 15.8911 12.5065 15.8898C13.1681 15.8759 13.8113 15.6699 14.3578 15.2967C14.9043 14.9235 15.3303 14.3994 15.584 13.7882C15.8377 13.1771 15.9081 12.5053 15.7866 11.8548C15.665 11.2044 15.3569 10.6033 14.8996 10.125ZM12.4999 14.7303C12.0576 14.7365 11.6233 14.611 11.2525 14.3697C10.8816 14.1284 10.5909 13.7823 10.4173 13.3754C10.2437 12.9684 10.1951 12.5191 10.2775 12.0844C10.36 11.6497 10.57 11.2494 10.8806 10.9344C11.1912 10.6193 11.5885 10.4038 12.022 10.3152C12.4554 10.2265 12.9055 10.2689 13.3148 10.4367C13.7242 10.6045 14.0743 10.8903 14.3208 11.2578C14.5673 11.6252 14.6989 12.0576 14.699 12.5C14.7011 12.7909 14.6459 13.0793 14.5366 13.3488C14.4272 13.6184 14.2658 13.8637 14.0616 14.0708C13.8574 14.278 13.6144 14.4428 13.3464 14.556C13.0784 14.6691 12.7908 14.7283 12.4999 14.7303Z" fill="white"/>
<path d="M16.847 8.9441C16.8479 9.04964 16.8279 9.15432 16.7883 9.25214C16.7487 9.34996 16.6901 9.439 16.616 9.51416C16.5419 9.58933 16.4537 9.64914 16.3565 9.69017C16.2593 9.73121 16.1549 9.75267 16.0493 9.75331C15.9447 9.75326 15.8411 9.73245 15.7445 9.69208C15.648 9.6517 15.5604 9.59258 15.4868 9.51811C15.3754 9.40506 15.2996 9.26179 15.2689 9.10607C15.2381 8.95034 15.2537 8.78901 15.3138 8.64209C15.3738 8.49516 15.4757 8.36909 15.6068 8.27951C15.7378 8.18994 15.8923 8.1408 16.051 8.13818C16.2367 8.13815 16.4166 8.20334 16.5592 8.32239L16.5756 8.33884C16.6022 8.36043 16.6264 8.38468 16.648 8.41121L16.6661 8.43095C16.7838 8.57599 16.8478 8.7573 16.847 8.9441Z" fill="white"/>
</g>
<defs>
<linearGradient id="paint0_linear_28_11970" x1="3.66118" y1="3.66118" x2="21.3388" y2="21.3388" gradientUnits="userSpaceOnUse">
<stop stop-color="#FAE100"/>
<stop offset="0.15" stop-color="#FCB720"/>
<stop offset="0.3" stop-color="#FF7950"/>
<stop offset="0.5" stop-color="#FF1C74"/>
<stop offset="1" stop-color="#6C1CD1"/>
</linearGradient>
<clipPath id="clip0_28_11970">
<rect width="25" height="25" fill="white"/>
</clipPath>
</defs>
</svg>
