<svg width="25" height="25" viewBox="0 0 25 25" fill="none" xmlns="http://www.w3.org/2000/svg">
<path fill-rule="evenodd" clip-rule="evenodd" d="M17.4703 9.95078C17.475 10.0609 17.4781 10.1711 17.4781 10.2828C17.4781 13.6711 14.8984 17.5789 10.1812 17.5789C8.73281 17.5789 7.38516 17.1547 6.25 16.4273C6.45078 16.4508 6.65469 16.4625 6.86172 16.4625C8.06328 16.4625 9.16875 16.0531 10.0469 15.3648C8.92422 15.3445 7.97734 14.6031 7.65078 13.5844C7.80781 13.6141 7.96797 13.6297 8.13359 13.6297C8.36719 13.6297 8.59375 13.5984 8.80937 13.5398C7.63594 13.3047 6.75234 12.268 6.75234 11.0258V10.993C7.09766 11.1852 7.49375 11.3008 7.91406 11.3141C7.22578 10.8539 6.77266 10.0688 6.77266 9.17969C6.77266 8.70938 6.89922 8.26875 7.12031 7.88984C8.38516 9.44141 10.275 10.4625 12.4062 10.5695C12.3625 10.382 12.3398 10.1859 12.3398 9.98516C12.3398 8.56875 13.4883 7.42031 14.9039 7.42031C15.6422 7.42031 16.3086 7.73203 16.7758 8.23047C17.3602 8.11562 17.9094 7.90234 18.4047 7.60859C18.2133 8.20703 17.8062 8.70938 17.2773 9.02734C17.7961 8.96484 18.2898 8.82734 18.75 8.62344C18.4062 9.1375 17.9711 9.58906 17.4703 9.95078ZM12.5 0C5.59609 0 0 5.59609 0 12.5C0 19.4031 5.59609 25 12.5 25C19.4039 25 25 19.4031 25 12.5C25 5.59609 19.4039 0 12.5 0Z" fill="#41A1F2"/>
</svg>
