<svg width="23" height="23" viewBox="0 0 23 23" fill="none" xmlns="http://www.w3.org/2000/svg">
<path d="M11.5 18.126C12.1202 18.126 12.623 17.6232 12.623 17.0029C12.623 16.3827 12.1202 15.8799 11.5 15.8799C10.8798 15.8799 10.377 16.3827 10.377 17.0029C10.377 17.6232 10.8798 18.126 11.5 18.126Z" fill="#62A7E8"/>
<path d="M11.5 0C5.14427 0 0 5.14342 0 11.5C0 17.8557 5.14342 23 11.5 23C17.8557 23 23 17.8566 23 11.5C23 5.14427 17.8566 0 11.5 0ZM11.5 21.2031C6.13736 21.2031 1.79688 16.8634 1.79688 11.5C1.79688 6.13736 6.13664 1.79688 11.5 1.79688C16.8626 1.79688 21.2031 6.13664 21.2031 11.5C21.2031 16.8626 16.8634 21.2031 11.5 21.2031Z" fill="#62A7E8"/>
<path d="M11.5 5.77246C9.51841 5.77246 7.90625 7.38462 7.90625 9.36621C7.90625 9.86242 8.30848 10.2646 8.80469 10.2646C9.30089 10.2646 9.70312 9.86242 9.70312 9.36621C9.70312 8.37541 10.5092 7.56934 11.5 7.56934C12.4908 7.56934 13.2969 8.37541 13.2969 9.36621C13.2969 10.357 12.4908 11.1631 11.5 11.1631C11.0038 11.1631 10.6016 11.5653 10.6016 12.0615V14.3076C10.6016 14.8038 11.0038 15.2061 11.5 15.2061C11.9962 15.2061 12.3984 14.8038 12.3984 14.3076V12.8463C13.9467 12.4463 15.0938 11.0377 15.0938 9.36621C15.0938 7.38462 13.4816 5.77246 11.5 5.77246Z" fill="#62A7E8"/>
</svg>
